<svg xmlns="http://www.w3.org/2000/svg" viewBox="0 0 512.015 512.015"><g fill="#9ccc65"><path d="M370.142 237.413a8.473 8.473 0 0 0 5.154 1.741 8.51 8.51 0 0 0 6.801-3.362c6.827-8.969 10.436-19.678 10.436-30.985a8.53 8.53 0 0 0-8.533-8.533 8.53 8.53 0 0 0-8.533 8.533c0 7.535-2.398 14.677-6.946 20.651-2.851 3.746-2.134 9.105 1.621 11.955z"/><path d="M341.333 290.141c47.053 0 85.333-38.281 85.333-85.333 0-62.839-76.407-131.49-79.667-134.383a8.54 8.54 0 0 0-11.332 0C332.407 73.317 256 141.968 256 204.808c0 47.052 38.281 85.333 85.333 85.333zm0-201.617c17.314 16.802 68.267 70.178 68.267 116.284 0 37.641-30.626 68.267-68.267 68.267-37.641 0-68.267-30.626-68.267-68.267.001-46.038 50.962-99.465 68.267-116.284zm119.459 13.884c.657 0 1.323-.077 1.98-.23 5.905-1.408 13.286-7.765 14.899-14.985 1.016-4.599-1.843-9.293-6.443-10.317-4.582-.99-9.131 1.741-10.146 6.34-.307.708-1.672 2.039-2.458 2.406-4.463 1.169-7.202 5.709-6.127 10.232a8.544 8.544 0 0 0 8.295 6.554z"/><path d="M460.8 136.541c28.237 0 51.2-22.963 51.2-51.2 0-46.234-43.998-81.963-45.867-83.465a8.545 8.545 0 0 0-10.667 0C453.598 3.378 409.6 39.107 409.6 85.341c0 28.237 22.963 51.2 51.2 51.2zm0-116.548c10.786 10.3 34.133 36.002 34.133 65.348 0 18.825-15.309 34.133-34.133 34.133-18.825 0-34.133-15.309-34.133-34.133 0-29.346 23.347-55.049 34.133-65.348zm-238.942 82.415c.657 0 1.323-.077 1.98-.23 5.905-1.408 13.286-7.765 14.899-14.985 1.016-4.599-1.843-9.293-6.443-10.317-4.565-.99-9.131 1.741-10.146 6.34-.307.708-1.673 2.039-2.458 2.406-4.463 1.169-7.202 5.709-6.127 10.232a8.545 8.545 0 0 0 8.295 6.554z"/><path d="M221.867 136.541c28.237 0 51.2-22.963 51.2-51.2 0-46.234-43.998-81.963-45.867-83.465a8.545 8.545 0 0 0-10.667 0c-1.869 1.502-45.867 37.231-45.867 83.465.001 28.237 22.964 51.2 51.201 51.2zm0-116.548C232.653 30.292 256 55.995 256 85.341c0 18.825-15.309 34.133-34.133 34.133s-34.133-15.309-34.133-34.133c-.001-29.346 23.347-55.049 34.133-65.348zm285.559 338.415c-9.412-16.316-30.353-21.888-46.097-12.774l-98.21 47.804c-15.266 7.637-30.677 7.637-64.452 7.637-33.015 0-83.422-8.337-83.934-8.414-4.651-.768-9.045 2.364-9.813 7.006-.777 4.651 2.364 9.054 7.014 9.822 2.116.358 52.292 8.653 86.733 8.653 35.43 0 53.214 0 71.996-9.395l98.671-48.051c3.942-2.278 8.542-2.884 12.954-1.707 4.395 1.186 8.081 4.011 10.351 7.953 2.287 3.951 2.893 8.55 1.715 12.954s-4.002 8.081-8.192 10.505l-115.379 71.808c-.239.162-24.858 15.667-80.648 15.667-48.375 0-123.11-41.182-124.186-41.771-.777-.375-19.285-9.429-55.014-9.429-4.719 0-8.533 3.823-8.533 8.533s3.814 8.533 8.533 8.533c31.036 0 47.027 7.467 47.061 7.467v-.009c3.226 1.792 79.334 43.742 132.139 43.742 61.611 0 88.934-17.749 89.839-18.355l114.961-71.552c7.893-4.557 13.542-11.921 15.898-20.719 2.37-8.816 1.15-18.015-3.407-25.908zM42.667 456.541c0-7.057-5.743-12.8-12.8-12.8s-12.8 5.743-12.8 12.8 5.743 12.8 12.8 12.8 12.8-5.743 12.8-12.8z"/><path d="M59.733 273.074h-51.2c-4.719 0-8.533 3.823-8.533 8.533s3.814 8.533 8.533 8.533h51.2c4.71 0 8.533 3.831 8.533 8.533v187.733c0 4.702-3.823 8.533-8.533 8.533h-51.2c-4.719 0-8.533 3.823-8.533 8.533s3.814 8.533 8.533 8.533h51.2c14.114 0 25.6-11.486 25.6-25.6V298.674c0-14.114-11.486-25.6-25.6-25.6zm51.2 51.2H179.2c9.958 0 26.88 12.698 41.813 23.893 18.722 14.046 36.412 27.307 52.053 27.307h51.2c12.962 0 19.396 5.879 19.567 6.033a8.51 8.51 0 0 0 6.033 2.5 8.509 8.509 0 0 0 6.033-2.5 8.525 8.525 0 0 0 0-12.066c-1.126-1.126-11.605-11.034-31.633-11.034h-51.2c-9.958 0-26.88-12.698-41.813-23.893-18.722-14.046-36.412-27.307-52.053-27.307h-68.267c-4.719 0-8.533 3.823-8.533 8.533s3.814 8.534 8.533 8.534z"/></g></svg>