<svg xmlns="http://www.w3.org/2000/svg" viewBox="0 0 463 463"><g fill="#9ccc65"><path d="M442.815 73.155a7.5 7.5 0 0 0-4.361-8.548c-.502-.215-12.587-5.272-50.917-11.861a23.584 23.584 0 0 0-16.523-15.38c-5.132-1.318-10.494-2.535-16.015-3.669v-4.288c0-11.676-8.385-21.457-19.938-23.256C308.847 2.07 280.733 0 251.499 0s-57.348 2.07-83.563 6.153c-11.553 1.799-19.938 11.58-19.938 23.256v4.288c-5.521 1.134-10.883 2.351-16.016 3.669-8.973 2.306-15.695 9.573-17.359 18.634H59.499c-21.78 0-39.5 17.72-39.5 39.5v123.26a71.555 71.555 0 0 0 23.998 53.439l50.52 44.906c.048.042.099.078.147.119-1.635 44.066-2.332 78.464-2.565 91.976C82.757 412.309 76 421.127 76 431.499v8c0 12.958 10.542 23.5 23.5 23.5h304c12.958 0 23.5-10.542 23.5-23.5v-8c0-10.372-6.758-19.191-16.099-22.299-.452-26.123-2.634-130.289-9.982-231.482 31.91-61.35 41.502-102.819 41.896-104.563zm-44.176 75.377c-2.364-28.166-5.165-55.469-8.481-80.097 18.782 3.369 30.131 6.214 36.284 7.988-3.267 11.532-11.509 37.495-27.803 72.109zM162.999 29.409c0-4.233 3.048-7.781 7.246-8.435C195.699 17.01 223.037 15 251.499 15s55.801 2.01 81.254 5.975c4.198.654 7.246 4.201 7.246 8.435v1.509c-27.077-4.5-57.506-6.919-88.5-6.919-30.993 0-61.422 2.419-88.5 6.918v-1.509zm-27.282 22.486C168.083 43.579 209.202 39 251.499 39s83.417 4.579 115.781 12.895a8.635 8.635 0 0 1 6.408 7.129c17.237 117.434 21.472 308.67 22.19 348.976H107.121c.717-40.304 4.951-231.529 22.189-348.976a8.636 8.636 0 0 1 6.407-7.129zM97.372 255.129l-24.834-22.075A16.51 16.51 0 0 1 67 220.722V103h41.685c-5.189 48.203-8.808 102.492-11.313 152.129zm-43.41 5.859a56.546 56.546 0 0 1-18.963-42.229V95.5c0-13.509 10.99-24.5 24.5-24.5h52.999c-.733 5.543-1.44 11.216-2.123 17H59.499a7.5 7.5 0 0 0-7.5 7.5v125.223c0 8.99 3.854 17.571 10.573 23.543l33.87 30.107c-.369 8.006-.708 15.845-1.021 23.468l-41.459-36.853zM411.999 439.5c0 4.687-3.813 8.5-8.5 8.5h-304c-4.687 0-8.5-3.813-8.5-8.5v-8c0-4.687 3.813-8.5 8.5-8.5h304c4.687 0 8.5 3.813 8.5 8.5v8z"/><path d="M251.491 374.998c17.369 0 31.5-14.131 31.5-31.5v-224c0-17.369-14.131-31.5-31.5-31.5s-31.5 14.131-31.5 31.5v224c0 17.369 14.131 31.5 31.5 31.5zm-16.5-255.5c0-9.098 7.402-16.5 16.5-16.5 9.098 0 16.5 7.402 16.5 16.5v8.5h-8.5c-4.143 0-7.5 3.358-7.5 7.5s3.357 7.5 7.5 7.5h8.5v17h-8.5c-4.143 0-7.5 3.358-7.5 7.5s3.357 7.5 7.5 7.5h8.5v17h-8.5c-4.143 0-7.5 3.358-7.5 7.5s3.357 7.5 7.5 7.5h8.5v17h-8.5c-4.143 0-7.5 3.358-7.5 7.5s3.357 7.5 7.5 7.5h8.5v17h-8.5c-4.143 0-7.5 3.358-7.5 7.5s3.357 7.5 7.5 7.5h8.5v17h-8.5c-4.143 0-7.5 3.358-7.5 7.5s3.357 7.5 7.5 7.5h8.5v17h-8.5c-4.143 0-7.5 3.358-7.5 7.5s3.357 7.5 7.5 7.5h8.5v8.5c0 9.098-7.402 16.5-16.5 16.5-9.098 0-16.5-7.402-16.5-16.5v-224z"/></g></svg>