<svg xmlns="http://www.w3.org/2000/svg" width="210.944" height="143.916" viewBox="0 0 210.94411 143.916"><g fill="#9ccc65"><path d="M105.433.739c-39.271 0-71.22 31.949-71.22 71.22 0 39.27 31.949 71.219 71.22 71.219 39.272 0 71.222-31.949 71.222-71.219 0-39.271-31.95-71.22-71.222-71.22zm0 135.69c-35.549 0-64.47-28.921-64.47-64.469 0-35.549 28.921-64.47 64.47-64.47s64.472 28.921 64.472 64.47c0 35.548-28.923 64.469-64.472 64.469z"/><path d="M105.433 20.123c-28.581 0-51.833 23.253-51.833 51.836 0 28.584 23.252 51.839 51.833 51.839 28.583 0 51.836-23.255 51.836-51.839.002-28.582-23.253-51.836-51.836-51.836zm0 96.926c-24.859 0-45.083-20.227-45.083-45.089 0-24.861 20.224-45.086 45.083-45.086 24.861 0 45.086 20.225 45.086 45.086.002 24.862-20.224 45.089-45.086 45.089zm101.26-43.552c-.004-1.687-.059-18.491-.555-35.09-.306-10.262-.72-18.452-1.228-24.343-.313-3.634-.657-6.358-1.05-8.329C203.518 4.019 202.717 0 199.235 0c-.254 0-.508.026-.756.078-2.155.446-3.623 2.133-6.623 10.944-1.863 5.475-3.91 12.644-5.764 20.19-2.205 8.977-7.201 31.14-5.98 43.042.801 7.811 4.332 9.45 7.154 9.45l.164-.002c1.332-.034 2.391-.052 3.235-.052.976 0 1.583.021 2.286.047l.289.01c-.236 5.541-1.171 13.22-2.081 20.689-1.323 10.867-2.692 22.105-2.224 28.756.559 7.945 5.936 10.764 10.371 10.764 3.125 0 6.317-1.332 8.537-3.562 2.014-2.024 3.114-4.656 3.101-7.41-.039-8.148-3.964-55.939-4.251-59.447zm-3.632 62.096c-.967.972-2.404 1.574-3.754 1.574-2.203 0-3.428-1.51-3.637-4.487-.422-6.004.906-16.914 2.191-27.467 1.186-9.734 2.305-18.93 2.178-24.896a3.375 3.375 0 0 0-3.374-3.303c-1.731 0-8.675.664-9.06-.068-1.062-1.741-2.277-10.688 3.021-35.345 2.425-11.285 5.272-21.403 7.481-27.997 1.129 12.633 1.799 37.293 1.836 60.042 0 .092.004.182.011.272.042.509 4.201 51.04 4.242 59.063.005.97-.377 1.85-1.135 2.612zM36.723 36.694c0-2.134-.068-5.211-.154-9.106-.132-5.952-.296-15.609-.296-23.355a3.375 3.375 0 1 0-6.75 0c0 7.821.165 17.519.298 23.504.023 1.046.046 2.051.065 3.002l-3.472.051V5.363a3.375 3.375 0 1 0-6.75 0V30.89l-3.153.046V5.363a3.375 3.375 0 1 0-6.75 0v25.672l-3.011.044V3.458a3.375 3.375 0 1 0-6.75 0v32.825c0 8.19 6.004 13.786 15.58 14.887v19.335c-.975.018-1.512.034-1.567.035a3.374 3.374 0 0 0-3.239 2.874c-1.598 10.676-5.008 44.078-4.729 57.747.173 8.444 5.758 12.224 11.216 12.224 5.808 0 12.269-4.297 12.581-11.24.357-7.971-1.746-41.746-2.644-53.862-.163-2.206-.285-3.849-.342-4.694a3.376 3.376 0 0 0-3.367-3.149c-.399 0-.784 0-1.159.002V51.118c8.622-1.38 14.393-8.216 14.393-14.424zm-13.624 95.148c-.129 2.867-3.122 4.792-5.837 4.792-2.848 0-4.393-1.94-4.468-5.612-.236-11.584 2.46-41.022 4.249-53.791.904-.013 2.012-.024 3.308-.032l.117 1.581c.812 10.966 2.97 45.494 2.631 53.062zM6.894 37.828l22.997-.338c-.606 3.154-4.658 7.133-10.738 7.133-2.702 0-11.078-.523-12.259-6.795z"/></g></svg>