<svg xmlns="http://www.w3.org/2000/svg" viewBox="0 0 596.61774 792" height="792" width="596.618"><g fill="#9ccc65"><path d="M226.391 693.799c-6.832 0-12.4-5.543-12.4-12.375s5.542-12.375 12.4-12.375h143.86c6.832 0 12.375 5.543 12.375 12.375s-5.543 12.375-12.375 12.375h-143.86zm15.984 49.113c-6.832 0-12.375-5.543-12.375-12.375s5.57-12.375 12.375-12.375h111.891c6.832 0 12.375 5.543 12.375 12.375s-5.543 12.375-12.375 12.375h-111.89zm44.292-171.084c0 6.807-5.517 12.323-12.323 12.323s-12.323-5.518-12.323-12.323c-.052-52.104-1.547-91.033-8.74-127.076-7.115-35.629-19.852-68.655-42.46-109.39-3.3-5.955-1.16-13.458 4.77-16.758 5.955-3.3 13.457-1.16 16.783 4.77 24.002 43.261 37.59 78.479 45.168 116.558 7.501 37.589 9.074 77.962 9.125 131.896zm47.954 0c0 6.807-5.518 12.323-12.323 12.323-6.805 0-12.323-5.518-12.323-12.323.053-53.936 1.624-94.282 9.126-131.896 7.58-38.079 21.167-73.295 45.17-116.558 3.3-5.955 10.827-8.095 16.758-4.77 5.956 3.3 8.068 10.828 4.77 16.758-22.61 40.734-35.346 73.787-42.462 109.39-7.169 36.043-8.689 74.973-8.716 127.076z"/><path d="M217.832 341.112c-6.497-2.063-10.055-9.023-7.992-15.521 2.088-6.497 9.023-10.055 15.521-7.992 8.611 2.785 16.062 6.523 22.945 9.978l.67.361c10.75 5.414 19.697 9.642 26.348 4.228l15.211-12.401c5.285-4.279 13.073-3.48 17.351 1.805 4.28 5.285 3.48 13.071-1.805 17.351l-15.21 12.401c-18.95 15.417-34.445 7.915-53.11-1.444l-.567-.258c-6.033-3.043-12.582-6.317-19.362-8.508zm92.865-280.784c0 6.832-5.543 12.375-12.376 12.375-6.832 0-12.375-5.543-12.375-12.375V12.375C285.946 5.543 291.49 0 298.321 0c6.834 0 12.376 5.543 12.376 12.375v47.953z"/><path d="M371.283 317.599c6.497-2.088 13.458 1.496 15.521 7.992 2.088 6.497-1.495 13.458-7.992 15.521-6.779 2.191-13.328 5.491-19.388 8.534l-.566.258c-18.64 9.358-34.16 16.887-53.109 1.443l-15.21-12.4c-5.286-4.28-6.085-12.066-1.806-17.351 4.28-5.285 12.066-6.084 17.352-1.805l15.211 12.401c6.652 5.414 15.572 1.16 26.35-4.228l.671-.361c6.904-3.481 14.354-7.219 22.966-10.004z"/><path d="M454.015 192.354c39.832 39.832 64.505 94.901 64.505 155.693 0 23.771-3.815 46.741-10.828 68.27-7.244 22.249-17.995 43.003-31.53 61.515-22.713 31.066-41.146 51.459-55.455 67.313-25.756 28.488-37.048 40.968-37.048 82.63 0 6.832-5.543 12.375-12.375 12.375H226.418c-6.832 0-12.4-5.543-12.4-12.375 0-41.25-11.525-53.857-37.1-81.882l-.026-.025-.026.025c-14.463-15.829-33.077-36.223-56.358-68.062-13.535-18.512-24.286-39.291-31.53-61.54a220.008 220.008 0 0 1-10.828-68.243c0-29.751 5.956-58.214 16.732-84.202l.232-.49c11.19-26.813 27.483-50.944 47.566-71.001a220.45 220.45 0 0 1 71.492-47.747v-.026c25.987-10.776 54.45-16.732 84.202-16.732 29.702 0 58.137 5.956 84.151 16.732 26.966 11.189 51.277 27.56 71.49 47.772zm39.73 155.693c0-53.96-21.89-102.815-57.235-138.188-18.07-18.073-39.6-32.613-63.422-42.462-22.945-9.513-48.21-14.772-74.767-14.772-26.529 0-51.794 5.259-74.714 14.772v-.025l-.052.025c-23.822 9.849-45.323 24.389-63.396 42.462-17.892 17.892-32.355 39.239-42.23 62.803l-.258.67c-9.487 22.919-14.772 48.185-14.772 74.714 0 21.192 3.377 41.611 9.565 60.611a196.187 196.187 0 0 0 27.947 54.579c22.353 30.576 40.554 50.506 54.708 66.025l-.026.025c27.534 30.087 41.224 45.143 43.364 86.135h120.708c2.114-41.275 15.546-56.177 43.21-86.754 13.818-15.288 31.581-34.959 53.831-65.381a194.945 194.945 0 0 0 27.921-54.553c6.24-19.075 9.617-39.468 9.617-60.686zM258.36 792c-6.832 0-12.375-5.543-12.375-12.375s5.543-12.375 12.375-12.375h79.923c6.832 0 12.375 5.543 12.375 12.375S345.115 792 338.283 792H258.36zm191.788-687.715c-3.379 5.878-10.933 7.915-16.837 4.538-5.878-3.377-7.913-10.931-4.536-16.835l23.977-41.533c3.377-5.878 10.932-7.915 16.835-4.538 5.904 3.377 7.915 10.931 4.538 16.835l-23.977 41.533zM167.842 92.013c3.377 5.878 1.367 13.432-4.538 16.81-5.878 3.377-13.432 1.34-16.809-4.538l-23.977-41.534c-3.377-5.878-1.34-13.432 4.538-16.809 5.904-3.377 13.458-1.341 16.835 4.537l23.951 41.534zM60 190.781c5.877 3.377 7.914 10.931 4.537 16.835-3.377 5.878-10.932 7.915-16.81 4.538L6.193 188.177C.29 184.8-1.747 177.246 1.63 171.368c3.377-5.904 10.931-7.915 16.835-4.538L60 190.781zm488.915 21.373c-5.904 3.377-13.458 1.341-16.835-4.538-3.378-5.904-1.34-13.458 4.537-16.835l41.534-23.977c5.902-3.377 13.456-1.341 16.835 4.538 3.377 5.878 1.341 13.458-4.538 16.835l-41.533 23.977z"/><path d="M169.75 396.954c2.63 6.265-.309 13.509-6.574 16.139-6.265 2.63-13.509-.31-16.139-6.574a162.272 162.272 0 0 1-9.643-31.271c-2.14-10.699-3.3-21.63-3.3-32.613 0-6.832 5.57-12.375 12.375-12.375 6.832 0 12.375 5.569 12.375 12.375 0 9.668.954 18.975 2.733 27.792a137.702 137.702 0 0 0 8.173 26.527zm0-108.668c-2.629 6.265-9.874 9.204-16.139 6.574-6.265-2.63-9.204-9.875-6.574-16.139a165.163 165.163 0 0 1 15.03-27.767l.026-.026-.026-.025a165.85 165.85 0 0 1 20.11-24.415c7.321-7.322 15.52-14.077 24.44-20.083v-.026c8.56-5.775 17.917-10.854 27.817-15.03a160.97 160.97 0 0 1 31.247-9.643c10.7-2.166 21.682-3.3 32.64-3.3 6.833 0 12.375 5.543 12.375 12.375s-5.543 12.375-12.376 12.375c-9.694 0-19.026.954-27.818 2.707-9.204 1.831-18.099 4.641-26.503 8.198-8.172 3.455-16.062 7.76-23.564 12.813h-.026c-7.296 4.898-14.257 10.673-20.702 17.119-6.368 6.368-12.143 13.355-17.119 20.754l-.026-.026c-5.026 7.452-9.332 15.341-12.812 23.565z"/></g></svg>