<svg xmlns="http://www.w3.org/2000/svg" height="430.755" width="302.836" viewBox="0 0 302.83624 430.75476"><path d="M290.689 230.649c14.631-14.631 16.095-39.95 4.121-71.29-5.968-15.622-14.949-31.95-26.335-48.1l13.126-52.691c8.779-10.401 8.277-26.017-1.519-35.813-9.797-9.796-25.411-10.297-35.813-1.52l-52.693 13.127c-16.15-11.386-32.477-20.367-48.099-26.336-31.342-11.973-56.659-10.51-71.29 4.122C12.379 71.958 11.962 169 70.915 229.344l-46.606 159.41H7.5a7.5 7.5 0 0 0-7.5 7.5v27a7.5 7.5 0 0 0 7.5 7.5h198.88a7.5 7.5 0 0 0 7.5-7.5v-27a7.5 7.5 0 0 0-7.5-7.5h-16.86l-34.796-115.24a155.748 155.748 0 0 0 26.714 2.316c39.566 0 79.13-15.06 109.251-45.181zm-9.89-65.936c9.595 25.113 9.333 45.28-.717 55.33-7.917 7.918-22.121 9.755-40.073 5.486l23.569-94.612c7.204 11.439 13.028 22.822 17.221 33.796zm-145.776-7.505c-24.463-25.602-43.147-53.48-52.944-79.123-.116-.303-.223-.602-.336-.903L188.448 50.6c9.758 7.252 19.431 15.43 28.8 24.383l-82.225 82.225zm92.831-71.618c8.952 9.369 17.131 19.042 24.383 28.8l-26.582 106.705c-.302-.113-.6-.22-.903-.336-25.645-9.798-53.521-28.482-79.123-52.944l82.225-82.225zm10.611-10.61l10.214-10.214a26.524 26.524 0 0 0 15.149 3.098l-6.979 28.013a328.609 328.609 0 0 0-18.384-20.897zm14.748-41.618a11.463 11.463 0 0 1 8.132-3.363c2.944 0 5.89 1.12 8.131 3.363 4.484 4.484 4.484 11.78 0 16.264-4.483 4.485-11.781 4.483-16.263 0-4.485-4.484-4.485-11.78 0-16.264zm-18.24 5.648a26.57 26.57 0 0 0 3.098 15.149l-10.213 10.213a328.333 328.333 0 0 0-20.897-18.384l28.012-6.978zM82.796 22.755c5.149-5.15 12.955-7.73 22.723-7.73 9.293 0 20.362 2.336 32.606 7.014 10.974 4.193 22.357 10.017 33.796 17.22L77.309 62.828c-4.269-17.951-2.432-32.154 5.487-40.073zM60.352 52.103c.835 9.518 3.396 20.032 7.715 31.336 11.223 29.375 33.097 61.246 61.591 89.74 28.495 28.496 60.366 50.37 89.741 61.593 11.299 4.317 21.812 6.884 31.325 7.72-53.271 30.462-122.498 22.984-167.929-22.448-45.434-45.435-52.911-114.667-22.443-167.941zM83.23 240.672a153.62 153.62 0 0 0 16.21 11.693v136.39H39.936L83.23 240.672zm115.65 175.083H15v-12h183.88v12zm-25.029-27H114.44V260.619a153.71 153.71 0 0 0 23.434 8.984l35.977 119.152z" fill="#9ccc65"/></svg>