<svg xmlns="http://www.w3.org/2000/svg" viewBox="0 0 63.904 63.904"><g fill="#9ccc65"><path d="M51.907 46.5a5.5 5.5 0 0 1-5.5 5.5h-30a5.5 5.5 0 0 1-5.5-5.5v-41a5.5 5.5 0 0 1 5.5-5.5h30a5.5 5.5 0 0 1 5.5 5.5v41zm-3-41a2.5 2.5 0 0 0-2.5-2.5h-30a2.5 2.5 0 0 0-2.5 2.5v41a2.5 2.5 0 0 0 2.5 2.5h30a2.5 2.5 0 0 0 2.5-2.5v-41z"/><path d="M43.907 54a1 1 0 0 1-1 1h-6a1 1 0 0 1-1-1v-2a1 1 0 0 1 1-1h6a1 1 0 0 1 1 1v2z"/><path d="M47.073 63.904c-2.55 0-4.582-.681-6.067-2.04-2.936-2.685-2.435-6.907-2.412-7.086a1.5 1.5 0 1 1 2.977.373c-.007.054-.309 2.898 1.474 4.512 1.433 1.298 4.029 1.581 7.508.818 9.408-2.063 10.873-1.129 11.561.006.51.839.26 1.789-.215 2.358a1.5 1.5 0 0 1-2.603-.578c-.895-.056-3.085.045-8.101 1.145-1.495.328-2.87.492-4.122.492zM27.907 52a1 1 0 0 0-1-1h-6a1 1 0 0 0-1 1v2a1 1 0 0 0 1 1h6a1 1 0 0 0 1-1v-2z"/><path d="M16.831 63.904c-1.251 0-2.626-.164-4.122-.492-5.011-1.1-7.197-1.204-8.1-1.145a1.5 1.5 0 0 1-2.603.579c-.475-.57-.725-1.52-.215-2.359.69-1.135 2.148-2.07 11.561-.006 3.478.764 6.075.481 7.508-.818 1.791-1.621 1.478-4.483 1.474-4.512a1.504 1.504 0 0 1 1.308-1.668 1.498 1.498 0 0 1 1.67 1.295c.022.179.523 4.401-2.413 7.086-1.485 1.358-3.516 2.04-6.068 2.04zm15.35-16.572c-3.957 0-7.177-3.219-7.177-7.177 0-3.957 3.22-7.177 7.177-7.177s7.176 3.22 7.176 7.177c-.001 3.958-3.219 7.177-7.176 7.177zm0-11.354a4.182 4.182 0 0 0-4.177 4.177 4.182 4.182 0 0 0 4.177 4.177 4.182 4.182 0 0 0 4.176-4.177 4.183 4.183 0 0 0-4.176-4.177z"/><path d="M32.407 38.5a1.5 1.5 0 0 1-1.5-1.5v-3a1.5 1.5 0 1 1 3 0v3a1.5 1.5 0 0 1-1.5 1.5zM35.48 11h-8a1.5 1.5 0 1 1 0-3h8a1.5 1.5 0 1 1 0 3z"/></g></svg>