<svg xmlns="http://www.w3.org/2000/svg" viewBox="0 0 110.14238 80.596375" height="80.596" width="110.142"><defs><clipPath id="a"><path d="M0 64.477h88.114V0H0v64.477z"/></clipPath><clipPath id="b"><path d="M0 64.477h88.114V0H0v64.477z"/></clipPath><clipPath id="c"><path d="M0 64.477h88.114V0H0v64.477z"/></clipPath></defs><g stroke="#9ccc65"><g clip-path="url(#a)" transform="matrix(1.25 0 0 -1.25 0 80.596)"><path d="M1 1h86.114M8.53 50.645l56.584 12.832 16.121-12.832H8.53z" fill="none" stroke-width="2" stroke-linecap="round" stroke-linejoin="round" stroke-miterlimit="10"/></g><path d="M30.839 66.315V23.349m25.557 21.904V23.769M21.38 39.655h18.917m6.64-5.144h18.918M21.38 53.913h18.917m-4.893-42.234V4.457h9.111v4.54" fill="none" stroke-width="2.5" stroke-linecap="round" stroke-linejoin="round" stroke-miterlimit="10"/><g clip-path="url(#b)" transform="matrix(1.25 0 0 -1.25 0 80.596)"><path d="M34.648 1.022v3.715H55.17V1" fill="none" stroke-width="2" stroke-linecap="round" stroke-linejoin="round" stroke-miterlimit="10"/></g><path d="M46.677 74.675v-23.97h18.92v23.97M50.382 67.19h2.851" fill="none" stroke-width="2.5" stroke-linecap="round" stroke-linejoin="round" stroke-miterlimit="10"/><g clip-path="url(#c)" transform="matrix(1.25 0 0 -1.25 0 80.596)" fill="none" stroke-width="2" stroke-linecap="round" stroke-linejoin="round" stroke-miterlimit="10"><path d="M32.237 38.231a7.567 7.567 0 1 1-15.134 0V11.425h15.134v26.806zm20.447 0a7.567 7.567 0 1 1-15.134 0v-9.62h15.134v9.62zm12.43-26.806v34.373m-7.567-13.045H72.68M57.547 21.346h10.948m4.185 11.407v5.479a7.567 7.567 0 0 1-15.133 0V11.425h7.568m-15.904 2.223h-8.812v7.058h8.812v-7.058z"/><path d="M63.817 5.462A1.36 1.36 0 0 0 62.67 7.55l4.494 7.07h-.818c-.825 0-1.326.91-.882 1.608l4.048 6.369h-1.047a.783.783 0 0 0-.66 1.204l6.32 9.942a.782.782 0 0 0 1.321 0l2.541-3.996v20.898H11.832V1.03h60.293v4.432h-8.308zM77.443 1.03h.543v4.432h-.543V1.03zM11.832 4.282v19.125l-1.036 1.63a.576.576 0 0 1-.97 0l-4.639-7.296a.575.575 0 0 1 .486-.883h.768l-2.97-4.675a.767.767 0 0 1 .647-1.179h.6L1.42 5.815a.998.998 0 0 1 .842-1.533h9.57zm-4.462 0V1"/><path d="M86.9 7.551l-4.495 7.07h.819c.824 0 1.324.91.882 1.607l-4.048 6.37h1.046c.618 0 .992.682.661 1.203l-6.32 9.943a.783.783 0 0 1-1.322 0l-6.32-9.943a.783.783 0 0 1 .661-1.203h1.047l-4.049-6.37a1.046 1.046 0 0 1 .883-1.607h.818l-4.494-7.07a1.36 1.36 0 0 1 1.148-2.089h21.935a1.36 1.36 0 0 1 1.147 2.09zM77.443 1.03h-5.318v4.432h5.318V1.03z"/></g></g></svg>