<svg xmlns="http://www.w3.org/2000/svg" xmlns:xlink="http://www.w3.org/1999/xlink" width="1505.12" height="265.367" viewBox="0 0 1128.84 199.025"><defs><symbol overflow="visible" id="a"><path d="M12.906 0C11.238 0 9.68-.32 8.234-.969A10.55 10.55 0 0 1 4.578-3.64a11.234 11.234 0 0 1-3.14-7.765c0-1.582.312-3.149.937-4.703l25.078-59.22c.957-2.163 2.383-3.82 4.281-4.968 1.907-1.156 4.051-1.734 6.438-1.734 2.082 0 4.008.61 5.781 1.828 1.781 1.21 3.234 2.836 4.36 4.875l24.25 59.219a11.555 11.555 0 0 1 1.015 4.765c0 1.375-.266 2.746-.797 4.11a11.21 11.21 0 0 1-2.219 3.593 11.197 11.197 0 0 1-3.734 2.672C65.391-.32 63.816 0 62.11 0a11.29 11.29 0 0 1-6.25-1.844c-1.898-1.238-3.28-2.922-4.156-5.047L37.72-40.859 23.312-6.891c-.96 2.168-2.382 3.86-4.265 5.079A11.092 11.092 0 0 1 12.907 0zm0 0"/></symbol><symbol overflow="visible" id="b"><path d="M77.016.75c-4.68 0-9.168-.742-13.47-2.219a42.7 42.7 0 0 1-11.843-6.297 40.518 40.518 0 0 1-9.125-9.562 42.07 42.07 0 0 1-5.672-12h-6.328v18.047c0 3.219-.98 5.914-2.937 8.078A10.436 10.436 0 0 1 24.156-.72c-1.355.606-2.808.906-4.36.906-1.542 0-3.015-.3-4.421-.906a11.4 11.4 0 0 1-3.656-2.484A11.79 11.79 0 0 1 9.234-6.86a11.06 11.06 0 0 1-.906-4.422v-27.39a12.94 12.94 0 0 1-.187-2.126c0-.664.062-1.312.187-1.937V-70.5c0-1.54.3-3.02.906-4.438a11.732 11.732 0 0 1 2.485-3.703 11.527 11.527 0 0 1 3.656-2.484 11.127 11.127 0 0 1 4.422-.906c1.55 0 3.004.304 4.36.906a10.547 10.547 0 0 1 3.484 2.484 10.631 10.631 0 0 1 2.187 3.672c.5 1.399.75 2.887.75 4.469v18.234h6.266a42.409 42.409 0 0 1 5.672-12.093 42.04 42.04 0 0 1 9.062-9.657c3.55-2.75 7.5-4.863 11.844-6.343 4.344-1.489 8.875-2.235 13.594-2.235 3.718 0 7.363.492 10.937 1.469a41.38 41.38 0 0 1 10.063 4.234 41.324 41.324 0 0 1 8.359 6.485 41.062 41.062 0 0 1 6.484 8.422 40.656 40.656 0 0 1 4.204 10.03 42.24 42.24 0 0 1 1.437 11.032c0 7.524-1.883 14.524-5.64 21a42.417 42.417 0 0 1-6.485 8.485 38.467 38.467 0 0 1-8.36 6.484A41.244 41.244 0 0 1 87.954-.72 41.31 41.31 0 0 1 77.016.75zm0-22.875c2.593 0 5.035-.469 7.328-1.406 2.3-.938 4.285-2.266 5.953-3.985a19.248 19.248 0 0 0 3.922-6.03c.937-2.282 1.406-4.74 1.406-7.376 0-2.55-.469-4.953-1.406-7.203a18.637 18.637 0 0 0-3.922-5.953 18.01 18.01 0 0 0-5.984-3.984c-2.274-.938-4.704-1.407-7.297-1.407-2.586 0-5.028.469-7.329 1.407-2.304.937-4.308 2.265-6.015 3.984-1.719 1.668-3.059 3.64-4.016 5.922-.96 2.273-1.437 4.683-1.437 7.234 0 2.68.468 5.149 1.406 7.406a18.312 18.312 0 0 0 4.047 6c1.707 1.72 3.71 3.047 6.016 3.985 2.3.937 4.742 1.406 7.328 1.406zm0 0"/></symbol><symbol overflow="visible" id="c"><path d="M19.797 0c-1.586 0-3.078-.29-4.485-.875-1.398-.582-2.593-1.379-3.593-2.39a11.928 11.928 0 0 1-2.485-3.626 10.83 10.83 0 0 1-.906-4.39v-59.344c0-1.55.3-3.023.906-4.422a12.268 12.268 0 0 1 2.547-3.734 11.716 11.716 0 0 1 3.531-2.438 11.05 11.05 0 0 1 4.172-.937h35.22c1.55 0 3.015.281 4.39.844a11.163 11.163 0 0 1 3.64 2.406 11.367 11.367 0 0 1 2.407 3.578 10.88 10.88 0 0 1 .843 4.266c0 1.542-.28 3.007-.843 4.39a10.936 10.936 0 0 1-2.407 3.625c-1.011 1-2.203 1.79-3.578 2.36-1.375.562-2.86.843-4.453.843H30.641v8.266h15.297c3.468 0 6.773.664 9.921 1.984a25.596 25.596 0 0 1 8.313 5.532c2.383 2.343 4.234 5.093 5.547 8.25a25.627 25.627 0 0 1 1.969 9.937c0 3.5-.657 6.82-1.97 9.953a25.547 25.547 0 0 1-5.546 8.281A25.833 25.833 0 0 1 55.89-2c-3.125 1.336-6.446 2-9.953 2zm25.64-22.25c.376 0 .801-.113 1.282-.344A4.599 4.599 0 0 0 48-23.5c.914-.914 1.375-2.11 1.375-3.578 0-1.29-.418-2.29-1.25-3-.71-.582-1.543-.875-2.5-.875H30.641v8.703zm0 0"/></symbol><symbol overflow="visible" id="d"><path d="M16.61 0c-3.18 0-5.813-1.086-7.907-3.266-.96-1-1.71-2.164-2.25-3.5a11.104 11.104 0 0 1-.812-4.203V-71.25c0-3.05 1.066-5.645 3.203-7.781 1-1 2.164-1.77 3.5-2.313a11.264 11.264 0 0 1 4.265-.812c1.5 0 2.938.273 4.313.812a11.023 11.023 0 0 1 3.64 2.313A11.982 11.982 0 0 1 27-75.484c.594 1.312.89 2.726.89 4.234v31.39l34.532-38.093c2.539-2.8 5.46-4.203 8.766-4.203 1.718 0 3.285.324 4.703.969 1.414.648 2.609 1.539 3.578 2.671a12.157 12.157 0 0 1 2.125 3.672c.5 1.356.75 2.742.75 4.156v59.72c0 1.511-.293 2.933-.875 4.265a11.324 11.324 0 0 1-2.375 3.5 10.756 10.756 0 0 1-3.578 2.36C74.14-.282 72.696 0 71.187 0c-1.5 0-2.945-.281-4.328-.844a10.572 10.572 0 0 1-3.562-2.36c-1-1-1.797-2.163-2.39-3.5-.587-1.331-.876-2.753-.876-4.265v-31.203L25.625-4.266c-1.836 2.22-4.047 3.579-6.64 4.079h-.188A11.92 11.92 0 0 1 16.609 0zm0 0"/></symbol><symbol overflow="visible" id="e"><path d="M19.422 0c-1.5 0-2.934-.281-4.297-.844a10.636 10.636 0 0 1-3.531-2.36c-1-1-1.797-2.163-2.39-3.5-.587-1.331-.876-2.753-.876-4.265v-60.218c0-1.508.281-2.93.844-4.266a11.48 11.48 0 0 1 2.422-3.578c1.039-1 2.238-1.77 3.594-2.313a11.749 11.749 0 0 1 4.359-.812c2.883 0 5.5 1.043 7.844 3.125l22.875 22.625 22.609-22.625c1.219-1.082 2.453-1.832 3.703-2.25l.625-.313c.29 0 .86-.101 1.703-.312a7.594 7.594 0 0 1 1.938-.25c1.5 0 2.937.273 4.312.812a11.023 11.023 0 0 1 3.64 2.313 11.367 11.367 0 0 1 2.407 3.578c.57 1.336.86 2.758.86 4.266v60.218c0 1.512-.297 2.934-.891 4.266a11.324 11.324 0 0 1-2.375 3.5 11.272 11.272 0 0 1-3.64 2.36A11.282 11.282 0 0 1 80.843 0c-1.512 0-2.946-.281-4.297-.844a10.636 10.636 0 0 1-3.531-2.36 11.104 11.104 0 0 1-2.391-3.5c-.586-1.331-.875-2.753-.875-4.265v-33.406L58.281-33.031c-1.086 1.093-2.32 1.902-3.703 2.422a12.836 12.836 0 0 1-4.25.843 11.78 11.78 0 0 1-4.39-.843 11.024 11.024 0 0 1-3.766-2.485L30.578-44.5v33.531c0 1.512-.293 2.934-.875 4.266a11.324 11.324 0 0 1-2.375 3.5 10.756 10.756 0 0 1-3.578 2.36C22.375-.282 20.93 0 19.422 0zm0 0"/></symbol><symbol overflow="visible" id="f"><path d="M19.734 0c-1.543 0-3.015-.281-4.422-.844a10.645 10.645 0 0 1-3.656-2.422c-1.043-1-1.86-2.187-2.453-3.562-.586-1.383-.875-2.867-.875-4.453v-59.344c0-1.55.3-3.035.906-4.453a12.003 12.003 0 0 1 2.485-3.703 11.68 11.68 0 0 1 3.656-2.469 11.127 11.127 0 0 1 4.422-.906c3.176 0 5.77 1 7.781 3 2 2.011 3 4.586 3 7.719v19.109h13.36c3.457 0 6.742.703 9.859 2.11 3.113 1.398 5.883 3.343 8.312 5.843a27.38 27.38 0 0 1 5.563 8.5 25.567 25.567 0 0 1 2.016 10c0 3.543-.672 6.883-2.016 10.016a26.098 26.098 0 0 1-5.563 8.28A26.361 26.361 0 0 1 53.83-2c-3.138 1.336-6.434 2-9.892 2zm72.141-.063c-1.469 0-2.871-.289-4.203-.875a11.262 11.262 0 0 1-3.516-2.39c-1-1-1.781-2.176-2.344-3.531a11.16 11.16 0 0 1-.843-4.297v-59.782c0-1.468.289-2.89.875-4.265a11.297 11.297 0 0 1 2.375-3.578 11.279 11.279 0 0 1 3.578-2.406 10.851 10.851 0 0 1 4.266-.844c1.5 0 2.945.293 4.343.875 1.406.586 2.63 1.375 3.672 2.375a11.775 11.775 0 0 1 2.438 3.61 10.44 10.44 0 0 1 .89 4.234v59.78c0 1.462-.308 2.884-.922 4.266a11.092 11.092 0 0 1-2.468 3.563 10.672 10.672 0 0 1-3.672 2.422 11.857 11.857 0 0 1-4.469.844zM43.609-22.25c1.301 0 2.317-.29 3.047-.875.727-.582 1.094-1.629 1.094-3.14 0-1.208-.367-2.133-1.094-2.782-.73-.644-1.68-.969-2.843-.969H30.578v7.766zm0 0"/></symbol><symbol overflow="visible" id="g"><path d="M45.938-87.422c-2.305 0-4.493-.437-6.563-1.312-2.063-.875-3.867-2.086-5.406-3.641a16.858 16.858 0 0 1-3.64-5.344 15.948 15.948 0 0 1-1.313-6.375c0-2.082.726-3.898 2.187-5.453a6.858 6.858 0 0 1 2.39-1.625 7.512 7.512 0 0 1 2.876-.562c2.093 0 3.91.73 5.453 2.187 1.508 1.43 2.266 3.246 2.266 5.453 0 .461.164.867.5 1.219.332.355.75.531 1.25.531.414 0 .82-.176 1.218-.531.395-.352.594-.758.594-1.219 0-2.125.71-3.941 2.14-5.453 1.376-1.457 3.165-2.187 5.376-2.187a7.51 7.51 0 0 1 2.922.562 6.82 6.82 0 0 1 2.343 1.625c1.426 1.512 2.14 3.328 2.14 5.453v.313a16.175 16.175 0 0 1-1.39 6.312 16.577 16.577 0 0 1-3.625 5.219c-1.511 1.512-3.293 2.695-5.343 3.547a16.344 16.344 0 0 1-6.376 1.281zM16.608 0c-3.18 0-5.812-1.086-7.906-3.266-.96-1-1.71-2.164-2.25-3.5a11.104 11.104 0 0 1-.812-4.203V-71.25c0-3.05 1.066-5.645 3.203-7.781 1-1 2.164-1.77 3.5-2.313a11.264 11.264 0 0 1 4.265-.812c1.5 0 2.938.273 4.313.812a11.023 11.023 0 0 1 3.64 2.313A11.982 11.982 0 0 1 27-75.484c.594 1.312.89 2.726.89 4.234v31.39l34.532-38.093c2.539-2.8 5.46-4.203 8.766-4.203 1.718 0 3.285.324 4.703.969 1.414.648 2.609 1.539 3.578 2.671a12.157 12.157 0 0 1 2.125 3.672c.5 1.356.75 2.742.75 4.156v59.72c0 1.511-.293 2.933-.875 4.265a11.324 11.324 0 0 1-2.375 3.5 10.756 10.756 0 0 1-3.578 2.36C74.14-.282 72.696 0 71.187 0c-1.5 0-2.945-.281-4.328-.844a10.572 10.572 0 0 1-3.562-2.36c-1-1-1.797-2.163-2.39-3.5-.587-1.331-.876-2.753-.876-4.265v-31.203L25.625-4.266c-1.836 2.22-4.047 3.579-6.64 4.079h-.188A11.92 11.92 0 0 1 16.609 0zm0 0"/></symbol><symbol overflow="visible" id="h"><path d="M12.906 20.36c-1.46 0-2.883-.294-4.265-.876-1.375-.586-2.563-1.375-3.563-2.375A12.05 12.05 0 0 1 2.594 13.5a10.375 10.375 0 0 1-.906-4.281v-21a10.73 10.73 0 0 1 .812-3.813 11.227 11.227 0 0 1 2.078-3.265c1.79-2.008 4.047-3.16 6.766-3.453L27.64-75.203c.875-2.04 2.207-3.688 4-4.938 1.8-1.257 3.867-1.93 6.203-2.015h28.453c1.508 0 2.953.293 4.328.875 1.375.586 2.566 1.375 3.578 2.375a11.367 11.367 0 0 1 2.406 3.578 10.88 10.88 0 0 1 .844 4.266v48.624c2.844.211 5.29 1.297 7.344 3.266 1 .961 1.77 2.078 2.312 3.36a11.23 11.23 0 0 1 .875 4.093V9.22c0 1.5-.293 2.937-.875 4.312-.586 1.383-1.375 2.578-2.375 3.578-1.011 1-2.203 1.79-3.578 2.375-1.375.582-2.82.875-4.328.875-1.543 0-2.996-.28-4.36-.843a11.007 11.007 0 0 1-3.593-2.407c-1-1-1.797-2.195-2.39-3.578a10.886 10.886 0 0 1-.876-4.312V.063c-.125 0-.21-.024-.25-.063H24.063v9.219c0 1.5-.293 2.937-.875 4.312-.586 1.383-1.375 2.578-2.375 3.578-1.012 1-2.204 1.79-3.579 2.375-1.375.582-2.82.875-4.328.875zm42.11-42.797v-37.22H46.25l-11.469 37.22zm0 0"/></symbol><symbol overflow="visible" id="i"><path d="M44.313.75c-7.438 0-14.461-1.898-21.063-5.703a39.118 39.118 0 0 1-8.375-6.453 41.554 41.554 0 0 1-6.484-8.516c-3.762-6.476-5.641-13.476-5.641-21 0-7.52 1.879-14.539 5.64-21.062 3.676-6.383 8.63-11.395 14.86-15.032 6.477-3.8 13.5-5.703 21.063-5.703 5.632 0 10.988 1.078 16.062 3.235a41.99 41.99 0 0 1 13.453 9.046 41.99 41.99 0 0 1 9.047 13.454c2.156 5.074 3.234 10.43 3.234 16.062 0 5.637-1.078 10.996-3.234 16.078-2.148 5.074-5.164 9.532-9.047 13.375-3.887 3.844-8.371 6.844-13.453 9C55.301-.32 49.945.75 44.312.75zm.124-22.375c2.665 0 5.172-.477 7.516-1.438a19.024 19.024 0 0 0 6.203-4.078c1.75-1.75 3.114-3.8 4.094-6.156.988-2.363 1.484-4.906 1.484-7.625 0-2.633-.496-5.117-1.484-7.453a19.648 19.648 0 0 0-4.094-6.203 19.038 19.038 0 0 0-6.203-4.172c-2.344-.977-4.851-1.469-7.516-1.469-2.68 0-5.199.492-7.562 1.469a18.428 18.428 0 0 0-6.172 4.172 19.286 19.286 0 0 0-4.172 6.203c-.98 2.336-1.468 4.82-1.468 7.453 0 2.719.488 5.262 1.468 7.625a18.516 18.516 0 0 0 4.172 6.156 18.413 18.413 0 0 0 6.172 4.078c2.363.961 4.883 1.438 7.563 1.438zm0 0"/></symbol><symbol overflow="visible" id="j"><path d="M25.89-7.594c0 1.356.188 2.36.563 3.016.383.648.977 1.14 1.781 1.484L27.031.766c-1.648-.262-2.933-.77-3.86-1.532-.929-.757-1.585-1.914-1.968-3.468C19.047-.86 16.031.828 12.156.828c-2.96 0-5.304-.914-7.031-2.75-1.73-1.844-2.594-4.3-2.594-7.375 0-3.55 1.16-6.254 3.485-8.11 2.32-1.85 5.632-2.78 9.937-2.78h4.297v-2.86c0-2.312-.477-3.984-1.422-5.015-.95-1.04-2.5-1.563-4.656-1.563-2.313 0-5.012.594-8.094 1.781l-1.39-4c3.707-1.508 7.164-2.265 10.375-2.265 7.218 0 10.828 3.605 10.828 10.812zm-12.406 4.11c2.946 0 5.204-1.727 6.766-5.188v-7.844h-3.672c-5.48 0-8.219 2.297-8.219 6.891 0 1.992.442 3.512 1.329 4.563.882 1.054 2.148 1.578 3.796 1.578zm0 0"/></symbol><symbol overflow="visible" id="k"><path d="M19.5-34.11c3.625 0 6.352 1.5 8.188 4.5 1.843 2.993 2.765 7.266 2.765 12.829 0 5.406-1.027 9.695-3.078 12.86-2.043 3.167-4.902 4.75-8.578 4.75-3.293 0-5.95-1.333-7.969-4v15.827l-5.703.703v-46.656h5l.313 4.5c2.28-3.539 5.3-5.312 9.062-5.312zM17.469-3.733c4.687 0 7.031-4.32 7.031-12.97 0-4.519-.543-7.8-1.625-9.843-1.074-2.05-2.71-3.078-4.906-3.078-1.469 0-2.778.445-3.922 1.328-1.137.887-2.211 2.09-3.219 3.61v16.843c1.727 2.742 3.942 4.11 6.64 4.11zm0 0"/></symbol><symbol overflow="visible" id="l"><path d="M28.484-17.656c0 .886-.043 1.875-.125 2.968H8.984c.164 3.887.946 6.684 2.344 8.391 1.395 1.711 3.297 2.563 5.703 2.563 1.52 0 2.88-.227 4.078-.688 1.196-.469 2.453-1.226 3.766-2.281l2.531 3.344C24.281-.566 20.738.828 16.781.828c-4.355 0-7.726-1.508-10.11-4.531-2.386-3.02-3.577-7.25-3.577-12.688 0-5.445 1.14-9.757 3.422-12.937 2.28-3.188 5.445-4.781 9.5-4.781 4.007 0 7.086 1.422 9.234 4.265 2.156 2.844 3.234 6.907 3.234 12.188zm-5.5-1.719c0-6.957-2.304-10.438-6.906-10.438-2.117 0-3.789.875-5.015 2.625-1.22 1.75-1.915 4.59-2.079 8.516h14zm0 0"/></symbol><symbol overflow="visible" id="m"><path d="M22.906 0v-14.813H10.828V0H5.125v-33.297h5.703v13.984h12.078v-13.984h5.703V0zm0 0"/></symbol><symbol overflow="visible" id="n"><path d="M29.5-4.5V9.563h-4.188L24.438 0H5.125l-.89 9.563H.061V-4.5h2.032c.883-.707 1.586-1.492 2.11-2.36.53-.874.991-2.32 1.39-4.343.406-2.02.734-4.91.984-8.672l.89-13.422h19.048V-4.5zm-8.547-24.484H12.47l-.5 8.547c-.219 3.542-.543 6.328-.969 8.359-.418 2.023-.953 3.578-1.61 4.672C8.743-6.313 7.868-5.344 6.767-4.5h14.187zm0 0"/></symbol><symbol overflow="visible" id="p"><path d="M21.016-18.11c5.144.594 7.718 3.297 7.718 8.11 0 3.336-1.14 5.836-3.422 7.5C23.04-.832 19.922 0 15.954 0H5.125v-32.984c3.969-.75 7.383-1.125 10.25-1.125 3.719 0 6.617.804 8.703 2.406 2.094 1.594 3.14 3.789 3.14 6.578 0 3.71-2.07 6.047-6.202 7.016zm-5.641-11.828c-1.43 0-2.945.106-4.547.313v10h5.375c3.625 0 5.438-1.707 5.438-5.125 0-1.77-.508-3.078-1.516-3.922-1.012-.844-2.594-1.265-4.75-1.265zm.578 25.766c4.633 0 6.953-1.984 6.953-5.953 0-2.07-.527-3.54-1.578-4.406-1.055-.864-2.68-1.297-4.875-1.297h-5.625v11.656zm0 0"/></symbol><symbol overflow="visible" id="o"><path d="M28.86 0h-5.438v-16.844c0-3.707.297-7.144.89-10.312L11.267 0H5.125v-33.297H10.5v16.39c0 3.512-.25 7.079-.75 10.704l12.906-27.094h6.203zm0 0"/></symbol><symbol overflow="visible" id="q"><path d="M38.734-33.297L31.391-17.78 39.75 0h-5.703l-7.14-15.375h-4.063V0h-5.188v-15.375h-3.984L6.453 0H.766l8.406-17.781-7.406-15.516h5.39L13.61-19.5h4.047v-13.797h5.188V-19.5h4.125l6.453-13.797zm0 0"/></symbol><symbol overflow="visible" id="r"><path d="M35.188 0H29.75l-1.14-16.64c-.212-3.083-.313-5.68-.313-7.797l.062-3.47-6.843 24.11h-5L9.875-27.844l.063 3.735c0 2.656-.086 5.148-.25 7.468L8.671 0H3.297L5.89-33.297h6.953l6.203 24.063 6.469-24.063h7.078zm0 0"/></symbol><symbol overflow="visible" id="s"><path d="M16.703-34.11c4.27 0 7.582 1.5 9.938 4.5 2.363 2.993 3.547 7.294 3.547 12.907 0 5.398-1.204 9.668-3.61 12.812C24.18-.742 20.868.83 16.641.83c-4.262 0-7.586-1.54-9.97-4.626C4.286-6.879 3.095-11.16 3.095-16.64c0-5.53 1.203-9.82 3.61-12.875 2.405-3.062 5.737-4.593 10-4.593zm0 4.547c-2.492 0-4.39 1.047-5.703 3.141-1.305 2.086-1.953 5.344-1.953 9.781 0 8.649 2.531 12.97 7.594 12.97 5.07 0 7.609-4.345 7.609-13.032 0-4.438-.637-7.688-1.906-9.75-1.274-2.07-3.153-3.11-5.64-3.11zm0 0"/></symbol><symbol overflow="visible" id="t"><path d="M16.703-34.11c1.781 0 3.406.297 4.875.891 1.477.586 2.895 1.485 4.25 2.703l-2.531 3.422c-1.012-.8-2.027-1.398-3.047-1.797-1.012-.406-2.105-.609-3.281-.609-2.492 0-4.422 1.059-5.797 3.172-1.375 2.105-2.063 5.398-2.063 9.875 0 8.355 2.618 12.531 7.86 12.531 1.176 0 2.25-.195 3.218-.594.97-.406 2.004-1.007 3.11-1.812l2.656 3.484c-2.7 2.45-5.758 3.672-9.172 3.672-4.273 0-7.62-1.473-10.047-4.422-2.43-2.957-3.64-7.222-3.64-12.797 0-3.632.554-6.78 1.672-9.437 1.125-2.656 2.707-4.695 4.75-6.125 2.05-1.438 4.445-2.156 7.187-2.156zm0 0"/></symbol><symbol overflow="visible" id="u"><path d="M25.64-33.297l-.703 4.563h-9.234V0H10v-28.734H.312v-4.563zm0 0"/></symbol><symbol overflow="visible" id="v"><path d="M27.469-33.297V0H21.78v-28.797h-9.125l-.89 12.219c-.336 4.387-.746 7.625-1.235 9.719-.48 2.086-1.25 3.668-2.312 4.75C7.164-1.035 5.504-.098 3.234.703L1.828-3.672c1.188-.508 2.05-1.148 2.594-1.922.55-.781.953-1.972 1.203-3.578.258-1.601.516-4.242.766-7.922l1.14-16.203zm0 0"/></symbol><symbol overflow="visible" id="w"><path d="M26.266-33.297V0h-5.688v-12.969h-6.344L7.906 0H1.97l7.14-14.313c-3.668-1.644-5.5-4.578-5.5-8.796 0-3.29 1.082-5.813 3.25-7.563 2.176-1.75 5.313-2.625 9.407-2.625zM20.578-17.03v-12.08h-4.437c-2.243 0-3.907.476-5 1.422-1.094.949-1.641 2.453-1.641 4.515 0 2.117.516 3.668 1.547 4.656 1.031.993 2.625 1.485 4.781 1.485zm0 0"/></symbol><symbol overflow="visible" id="x"><path d="M13.984-22.406c8.696 0 13.047 3.695 13.047 11.078 0 3.793-1.12 6.633-3.36 8.515C21.43-.937 18.458 0 14.75 0H5.125v-33.297h5.703v10.89zm17.282-10.89h5.703V0h-5.703zM14.375-4.235c2.227 0 3.922-.547 5.078-1.641 1.164-1.102 1.75-2.941 1.75-5.516 0-2.363-.527-4.101-1.578-5.218-1.055-1.125-2.89-1.688-5.516-1.688h-3.28v14.063zm0 0"/></symbol><symbol overflow="visible" id="y"><path d="M17.219-17.844L27.469 0h-6.266l-7.469-14.438L6.328 0H.25L10.5-17.594 1.39-33.297h6.204l6.265 12.406 6.266-12.406h6.016zm0 0"/></symbol></defs><g fill="#515151"><use xlink:href="#a" x="213.697" y="113.765"/><use xlink:href="#b" x="282.615" y="113.765"/><use xlink:href="#c" x="397.865" y="113.765"/><use xlink:href="#d" x="466.27" y="113.765"/><use xlink:href="#e" x="554.054" y="113.765"/><use xlink:href="#f" x="648.513" y="113.765"/></g><g fill="#515151"><use xlink:href="#g" x="754.201" y="113.765"/><use xlink:href="#h" x="841.985" y="113.765"/><use xlink:href="#h" x="864.83" y="113.765"/></g><g fill="#515151"><use xlink:href="#i" x="947.532" y="113.765"/><use xlink:href="#e" x="1030.311" y="113.765"/></g><g fill="#515151"><use xlink:href="#j" x="213.697" y="176.87"/><use xlink:href="#k" x="244.713" y="176.87"/><use xlink:href="#l" x="278.387" y="176.87"/><use xlink:href="#m" x="309.656" y="176.87"/><use xlink:href="#n" x="343.394" y="176.87"/><use xlink:href="#j" x="375.296" y="176.87"/><use xlink:href="#o" x="406.312" y="176.87"/><use xlink:href="#m" x="421.187" y="176.87"/><use xlink:href="#l" x="454.924" y="176.87"/></g><g fill="#fff"><use xlink:href="#n" x="485.56" y="176.87" fill="#515151"/><use xlink:href="#p" x="517.462" y="176.87" fill="#515151"/><use xlink:href="#o" x="549.301" y="176.87" fill="#515151"/><use xlink:href="#q" x="583.292" y="176.87" fill="#515151"/><use xlink:href="#o" x="623.803" y="176.87" fill="#515151"/><use xlink:href="#r" x="657.793" y="176.87" fill="#515151"/><use xlink:href="#s" x="696.278" y="176.87" fill="#515151"/><use xlink:href="#t" x="729.573" y="176.87" fill="#515151"/><use xlink:href="#u" x="756.664" y="176.87" fill="#515151"/><use xlink:href="#o" x="782.363" y="176.87" fill="#515151"/><use xlink:href="#o" x="816.354" y="176.87"/><use xlink:href="#n" x="831.229" y="176.87" fill="#515151"/></g><g fill="#515151"><use xlink:href="#v" x="863.574" y="176.87"/><use xlink:href="#w" x="896.109" y="176.87"/><use xlink:href="#o" x="927.505" y="176.87"/><use xlink:href="#s" x="942.38" y="176.87"/></g><use xlink:href="#u" x="974.212" y="176.87" fill="#515151"/><g fill="#515151"><use xlink:href="#n" x="997.063" y="176.87"/><use xlink:href="#x" x="1028.965" y="176.87"/><use xlink:href="#y" x="1071.058" y="176.87"/></g><use xlink:href="#j" x="1097.833" y="176.87" fill="#515151"/><path d="M105.29 155.855l-4.056 4.043a3.768 3.768 0 0 1-5.312 0l-4.055-4.043c-24.91-22.035-41.191-36.89-41.191-55.109 0-14.828 11.511-26.336 26.336-26.336 7.168 0 14.312 2.957 19.511 7.887a2.991 2.991 0 0 0 4.11 0c5.199-4.93 12.344-7.887 19.515-7.887 14.825 0 26.332 11.508 26.332 26.336 0 18.219-16.28 33.074-41.19 55.11m90.15-89.766l-88-63.317a14.732 14.732 0 0 0-17.21 0l-31.672 22.79v-9.231a3.363 3.363 0 0 0-3.364-3.363H34.613a3.36 3.36 0 0 0-3.363 3.363v28.883L2.234 66.09c-4.214 3.031-2.07 9.687 3.121 9.687a3.364 3.364 0 0 1 3.368 3.364v102.043c0 7.765 6.297 14.066 14.062 14.066h152.106c7.765 0 14.062-6.3 14.062-14.066V79.14a3.363 3.363 0 0 1 3.363-3.364c5.196 0 7.34-6.656 3.125-9.687" fill="#a5ff76"/></svg>