<svg xmlns="http://www.w3.org/2000/svg" viewBox="0 0 512.001 512.001"><path d="M423.243 108.24c-40.719-40.719-93.671-64.753-150.568-68.69l28.76-28.761L290.646 0l-48.12 48.12 48.12 48.12 10.789-10.789-30.726-30.726c115.169 7.597 206.549 103.699 206.549 220.758 0 122.002-99.256 221.258-221.258 221.258S34.742 397.486 34.742 275.483c0-4.907.163-9.869.483-14.745l-15.227-1.001a241.413 241.413 0 0 0-.516 15.746c0 63.176 24.602 122.571 69.275 167.243S192.824 512.001 256 512.001s122.571-24.602 167.243-69.275 69.275-104.067 69.275-167.243-24.602-122.572-69.275-167.243zM60.777 141.921a237.051 237.051 0 0 0-8.475 13.293l13.133 7.77a222.487 222.487 0 0 1 7.929-12.437l-12.587-8.626zm19.5-24.752a238.575 238.575 0 0 0-10.16 12.051l11.986 9.443a224.06 224.06 0 0 1 9.509-11.277l-11.335-10.217z"/><path d="M24.152 228.49a236.4 236.4 0 0 0-2.598 15.556l15.126 2.009a221.97 221.97 0 0 1 2.43-14.549l-14.958-3.016zm78.723-133.272a239.13 239.13 0 0 0-11.663 10.601l10.633 10.945a223.463 223.463 0 0 1 10.913-9.919l-9.883-11.627zm-58.144 73.824a237.045 237.045 0 0 0-6.632 14.308l14.052 5.949a222.417 222.417 0 0 1 6.202-13.381l-13.622-6.876zm-12.288 29.031a234.638 234.638 0 0 0-4.657 15.069l14.722 4.012a221.531 221.531 0 0 1 4.354-14.088l-14.419-4.993zm224.622-90.442c-92.26 0-167.319 75.059-167.319 167.319s75.059 167.32 167.319 167.32 167.319-75.059 167.319-167.319-75.059-167.32-167.319-167.32zm0 319.379c-83.845 0-152.06-68.214-152.06-152.06s68.215-152.06 152.06-152.06c83.846 0 152.06 68.214 152.06 152.06s-68.214 152.06-152.06 152.06z"/><path d="M248.369 140.69h15.259v15.259h-15.259zm0 252.285h15.259v15.259h-15.259zM122.226 266.833h15.259v15.259h-15.259zm252.286 0h15.259v15.259h-15.259zm-110.882 1.929v-84.326h-15.259v90.647l47.503 47.503 10.79-10.79z"/></svg>