<svg xmlns="http://www.w3.org/2000/svg" viewBox="0 0 92.713249 75.088501" height="75.089" width="92.713"><defs><clipPath id="a"><path d="M0 60.071h74.171V0H0v60.071z"/></clipPath><clipPath id="b"><path d="M0 60.071h74.171V0H0v60.071z"/></clipPath></defs><g stroke="#9ccc65" fill="none" stroke-linecap="round" stroke-linejoin="round" stroke-miterlimit="10"><g clip-path="url(#a)" transform="matrix(1.25 0 0 -1.25 0 75.088)" stroke-width="2"><path d="M69.219 40.998H4.952V1h64.267v39.998z"/><path d="M1 40.998L36.601 59.07l36.57-18.073H1z"/></g><path d="M14.938 16.892V6.805h6.447v6.815" stroke-width="2.5"/><g clip-path="url(#b)" transform="matrix(1.25 0 0 -1.25 0 75.088)" stroke-width="2"><path d="M40.028 49.642a3.375 3.375 0 1 0-6.749.001 3.375 3.375 0 0 0 6.75-.001zm-8.559-37.605H12.58v18.887h18.888V12.038zm0 9.443H12.58m9.445 9.444V12.036m38.313-10.74H41.82v29.628h18.518V1.296zM44.932 12.037h4.073"/><path d="M57.227 15.073H44.932v12.814h12.295V15.073z"/></g></g></svg>