<svg xmlns="http://www.w3.org/2000/svg" viewBox="0 0 512 512"><path d="M417.416 275.974H274.253a7.604 7.604 0 0 0-7.604 7.604v125.719a7.604 7.604 0 0 0 7.604 7.604h143.163c4.2 0 7.604-3.405 7.604-7.604V283.578c0-4.2-3.404-7.604-7.604-7.604zm-7.604 125.718H281.857v-72.309h127.955v72.309zm0-87.516H281.857v-22.994h127.955v22.994z"/><path d="M504.396 432.792h-50.183v-168.82l13.553 12.94a7.588 7.588 0 0 0 5.252 2.104c1.734 0 3.47-.59 4.888-1.78l30.179-25.333c1.018-.855 1.866-1.918 2.348-3.156a7.618 7.618 0 0 0-1.826-8.315l-52.366-49.871v-71.977a7.605 7.605 0 0 0-15.208 0v57.494l-80.095-76.279v-37.75h80.095v21.048a7.605 7.605 0 0 0 15.208 0V54.445a7.605 7.605 0 0 0-7.604-7.604h-95.303a7.605 7.605 0 0 0-7.604 7.604v30.87l-69.424-66.116-15.131-14.056a7.603 7.603 0 0 0-10.35 0l-15.2 14.121L3.393 240.431a7.617 7.617 0 0 0-1.826 8.315c.483 1.238 1.33 2.301 2.348 3.156l30.179 25.334a7.605 7.605 0 0 0 10.14-.324l13.56-12.947v49.771a7.605 7.605 0 0 0 15.208 0v-64.291L256 74.73l183.005 174.722v183.341H274.253a7.605 7.605 0 0 0-7.604 7.604v53.284h-21.291V283.579a7.605 7.605 0 0 0-7.604-7.604H112.035a7.605 7.605 0 0 0-7.604 7.604v210.102h-8.545v-53.284a7.605 7.605 0 0 0-7.604-7.604H73.001v-83.57a7.605 7.605 0 0 0-15.208 0v83.57H7.604A7.605 7.605 0 0 0 0 440.397v60.889a7.605 7.605 0 0 0 7.604 7.604h80.678l.019-.001h185.931l.019.001h230.145a7.605 7.605 0 0 0 7.604-7.604v-60.889a7.604 7.604 0 0 0-7.604-7.605zM80.678 493.68H65.397v.001H15.208V448h65.47v45.68zm149.472 0H119.639V291.182H230.15V493.68zm31.101-434.963c-1.47-1.402-3.36-2.104-5.251-2.104s-3.781.702-5.251 2.104L38.656 261.21l-18.618-15.63L246.044 30.341l9.956-9.25 9.886 9.185L491.961 245.58l-18.619 15.63L261.251 58.717zm235.541 434.964h-50.183v-.001H281.857V448h214.936v45.681z"/><path d="M212.981 384.129h-18.25a7.604 7.604 0 0 0 0 15.208h18.25a7.604 7.604 0 0 0 0-15.208zm43.022-240.273c-23.479 0-42.58 19.101-42.58 42.581 0 23.479 19.101 42.58 42.58 42.58s42.58-19.101 42.58-42.58-19.101-42.581-42.58-42.581zm0 69.953c-15.093 0-27.372-12.279-27.372-27.372s12.279-27.373 27.372-27.373 27.372 12.279 27.372 27.373c0 15.093-12.279 27.372-27.372 27.372z"/></svg>