<svg xmlns="http://www.w3.org/2000/svg" viewBox="0 0 1407.5681 244.06062" height="244.061" width="1407.568"><defs><clipPath id="a"><path d="M0 1080h1920V0H0v1080z"/></clipPath></defs><g clip-path="url(#a)" transform="matrix(1.25 0 0 -1.25 -502.703 1106.542)"><path d="M624.1 772.44c-1.44.646-2.664 1.535-3.666 2.663a11.09 11.09 0 0 0-2.319 3.604 11.12 11.12 0 0 0-.814 4.167c0 1.587.313 3.153.94 4.7l25.066 59.22c.96 2.17 2.391 3.831 4.293 4.981 1.9 1.148 4.042 1.723 6.423 1.723 2.088 0 4.02-.606 5.796-1.817 1.776-1.212 3.228-2.842 4.356-4.888l24.252-59.219a11.625 11.625 0 0 0 1.002-4.763c0-1.379-.26-2.748-.783-4.104a11.212 11.212 0 0 0-2.225-3.604 11.358 11.358 0 0 0-3.728-2.663c-1.442-.648-3.019-.972-4.732-.972-2.256 0-4.335.617-6.235 1.85-1.9 1.23-3.29 2.913-4.168 5.044l-13.974 33.965-14.413-33.965c-.962-2.173-2.38-3.865-4.26-5.076-1.88-1.212-3.929-1.818-6.143-1.818-1.67 0-3.227.324-4.668.972M769.125 795c2.297.94 4.282 2.266 5.953 3.979a19.45 19.45 0 0 1 3.917 6.047c.94 2.277 1.41 4.732 1.41 7.364 0 2.547-.47 4.95-1.41 7.206a18.789 18.789 0 0 1-3.917 5.953 18.192 18.192 0 0 1-5.985 3.98c-2.277.94-4.71 1.41-7.3 1.41-2.591 0-5.035-.47-7.332-1.41a18.108 18.108 0 0 1-6.016-3.98c-1.714-1.671-3.05-3.645-4.01-5.922-.962-2.277-1.442-4.69-1.442-7.237 0-2.675.47-5.139 1.41-7.395a18.497 18.497 0 0 1 4.042-6.016 18.106 18.106 0 0 1 6.016-3.979c2.297-.94 4.741-1.41 7.332-1.41 2.59 0 5.034.47 7.332 1.41m-20.805-22.059a42.42 42.42 0 0 0-11.844 6.298 40.423 40.423 0 0 0-9.118 9.557 41.86 41.86 0 0 0-5.671 12h-6.33v-18.047c0-3.218-.982-5.912-2.945-8.084a10.454 10.454 0 0 0-3.478-2.476 10.566 10.566 0 0 0-4.355-.909c-1.546 0-3.019.303-4.418.909a11.69 11.69 0 0 0-3.666 2.476 11.671 11.671 0 0 0-2.475 3.666 10.992 10.992 0 0 0-.909 4.418v27.385a13.02 13.02 0 0 0-.188 2.13c0 .668.063 1.316.188 1.943v27.761c0 1.545.303 3.029.909 4.449a11.6 11.6 0 0 0 2.475 3.698 11.722 11.722 0 0 0 3.666 2.475c1.399.605 2.872.909 4.418.909 1.545 0 2.997-.304 4.355-.909a10.48 10.48 0 0 0 3.478-2.475 10.658 10.658 0 0 0 2.193-3.666c.502-1.401.752-2.894.752-4.481v-18.236h6.267a42.151 42.151 0 0 0 5.671 12.095 41.908 41.908 0 0 0 9.056 9.65c3.55 2.757 7.498 4.877 11.843 6.361 4.345 1.482 8.877 2.225 13.599 2.225 3.718 0 7.363-.492 10.935-1.473a41.55 41.55 0 0 0 10.058-4.23 41.85 41.85 0 0 0 8.366-6.486 41.046 41.046 0 0 0 6.486-8.429 40.78 40.78 0 0 0 4.198-10.026c.961-3.551 1.442-7.228 1.442-11.029 0-7.52-1.88-14.518-5.64-20.994a42.622 42.622 0 0 0-6.486-8.491 38.986 38.986 0 0 0-8.366-6.486 41.51 41.51 0 0 0-10.058-4.23 41.106 41.106 0 0 0-10.935-1.472c-4.68 0-9.171.742-13.473 2.224m97.116 20.774c.376 0 .804.114 1.285.345.48.23.908.532 1.284.908.919.918 1.379 2.11 1.379 3.572 0 1.295-.418 2.297-1.253 3.008-.711.584-1.546.877-2.507.877h-14.977v-8.71h14.789zm-30.111-21.37c-1.4.585-2.6 1.38-3.603 2.382a11.776 11.776 0 0 0-2.475 3.635 10.776 10.776 0 0 0-.91 4.387v59.344c0 1.545.304 3.018.91 4.418a11.907 11.907 0 0 0 2.538 3.728 11.71 11.71 0 0 0 3.54 2.445 10.97 10.97 0 0 0 4.168.94h35.218c1.545 0 3.008-.283 4.387-.846a10.969 10.969 0 0 0 3.634-2.413 11.123 11.123 0 0 0 2.412-3.572c.564-1.338.847-2.757.847-4.26 0-1.547-.283-3.009-.847-4.388a10.935 10.935 0 0 0-2.412-3.635 10.749 10.749 0 0 0-3.572-2.35c-1.38-.564-2.862-.845-4.45-.845h-24.064v-8.272h15.29c3.468 0 6.778-.659 9.933-1.974a25.519 25.519 0 0 0 8.303-5.546c2.382-2.34 4.23-5.087 5.546-8.24a25.544 25.544 0 0 0 1.975-9.934c0-3.509-.658-6.83-1.974-9.964a25.601 25.601 0 0 0-5.546-8.27 25.519 25.519 0 0 0-8.272-5.642c-3.133-1.337-6.454-2.005-9.964-2.005h-26.132c-1.588 0-3.08.292-4.48.877m61.803 2.382a10.998 10.998 0 0 0-2.256 3.51 11.051 11.051 0 0 0-.814 4.199v60.284c0 3.05 1.065 5.64 3.195 7.77a10.499 10.499 0 0 0 3.51 2.32c1.336.541 2.757.813 4.261.813s2.945-.272 4.324-.814a11.028 11.028 0 0 0 3.634-2.319 11.713 11.713 0 0 0 2.445-3.54c.584-1.317.877-2.726.877-4.23v-31.396l34.53 38.101c2.546 2.798 5.471 4.198 8.772 4.198 1.712 0 3.28-.324 4.7-.97 1.42-.649 2.611-1.536 3.572-2.664a12.193 12.193 0 0 0 2.131-3.666c.501-1.358.752-2.748.752-4.168v-59.72c0-1.504-.293-2.925-.878-4.262a11.326 11.326 0 0 0-2.38-3.508 10.726 10.726 0 0 0-3.573-2.35 11.313 11.313 0 0 0-4.324-.847c-1.504 0-2.945.282-4.324.846a10.736 10.736 0 0 0-3.572 2.351 11.326 11.326 0 0 0-2.38 3.508 10.5 10.5 0 0 0-.878 4.262v31.208l-34.404-37.913c-1.839-2.215-4.053-3.572-6.643-4.073h-.188c-.669-.126-1.4-.189-2.193-.189-3.175 0-5.807 1.086-7.896 3.26m94.203-2.414a10.803 10.803 0 0 0-3.54 2.351 11.306 11.306 0 0 0-2.382 3.508 10.517 10.517 0 0 0-.878 4.262v60.223c0 1.504.283 2.924.847 4.26a11.11 11.11 0 0 0 2.413 3.572 11.098 11.098 0 0 0 3.602 2.32c1.358.542 2.81.815 4.356.815 2.883 0 5.493-1.045 7.833-3.134l22.873-22.622 22.623 22.622c1.211 1.086 2.443 1.838 3.697 2.256l.627.314c.291 0 .856.102 1.692.312a7.551 7.551 0 0 0 1.943.251c1.504 0 2.945-.273 4.323-.815a11.053 11.053 0 0 0 3.635-2.319 11.142 11.142 0 0 0 2.413-3.572c.564-1.337.846-2.757.846-4.26v-60.223c0-1.504-.293-2.925-.877-4.262a11.34 11.34 0 0 0-2.382-3.508 11.471 11.471 0 0 0-3.635-2.35 11.323 11.323 0 0 0-4.323-.847c-1.505 0-2.935.283-4.293.846a10.808 10.808 0 0 0-3.54 2.351 11.32 11.32 0 0 0-2.382 3.508 10.5 10.5 0 0 0-.878 4.262v33.401l-11.467-11.343a10.386 10.386 0 0 0-3.698-2.412 12.984 12.984 0 0 0-4.26-.847c-1.505 0-2.968.283-4.388.847a11.002 11.002 0 0 0-3.76 2.475l-11.593 11.405v-33.526c0-1.504-.293-2.925-.878-4.262a11.32 11.32 0 0 0-2.38-3.508 10.712 10.712 0 0 0-3.573-2.35 11.328 11.328 0 0 0-4.324-.847c-1.504 0-2.936.283-4.292.846m166.959.096a11.312 11.312 0 0 0-3.51 2.38 10.818 10.818 0 0 0-2.35 3.541 11.051 11.051 0 0 0-.846 4.292v59.784c0 1.461.291 2.882.877 4.261a11.154 11.154 0 0 0 2.381 3.572 11.128 11.128 0 0 0 3.572 2.412c1.337.564 2.758.846 4.262.846 1.504 0 2.955-.293 4.355-.877a11.859 11.859 0 0 0 3.666-2.38 11.534 11.534 0 0 0 2.444-3.604 10.61 10.61 0 0 0 .877-4.23v-59.784a10.48 10.48 0 0 0-.909-4.26 11.067 11.067 0 0 0-2.474-3.573 10.887 10.887 0 0 0-3.666-2.413c-1.4-.564-2.895-.846-4.482-.846-1.463 0-2.862.292-4.198.878m-44.055 21.306c1.295 0 2.31.292 3.04.877s1.097 1.63 1.097 3.133c0 1.212-.367 2.141-1.098 2.79-.73.646-1.68.971-2.85.971H1081.2v-7.77h13.034zm-28.293-21.4a10.863 10.863 0 0 0-3.666 2.412 10.662 10.662 0 0 0-2.444 3.573c-.585 1.378-.878 2.86-.878 4.45v59.343c0 1.545.303 3.03.91 4.45a11.603 11.603 0 0 0 2.475 3.697 11.682 11.682 0 0 0 3.666 2.475 11.01 11.01 0 0 0 4.418.91c3.174 0 5.765-1.004 7.77-3.009 2.005-2.006 3.008-4.575 3.008-7.708v-19.113h13.348c3.468 0 6.757-.7 9.87-2.1 3.111-1.4 5.88-3.352 8.303-5.859a27.274 27.274 0 0 0 5.578-8.49 25.668 25.668 0 0 0 2.005-9.997c0-3.55-.669-6.892-2.005-10.026a26.042 26.042 0 0 0-5.578-8.27 26.028 26.028 0 0 0-8.272-5.58c-3.133-1.336-6.433-2.004-9.9-2.004h-24.19a11.72 11.72 0 0 0-4.418.845m129.766 87.89a16.93 16.93 0 0 0-5.422 3.635 17.16 17.16 0 0 0-3.635 5.358 15.844 15.844 0 0 0-1.314 6.36c0 2.089.73 3.906 2.193 5.452a6.7 6.7 0 0 0 2.381 1.63 7.534 7.534 0 0 0 2.883.564c2.088 0 3.906-.732 5.451-2.194 1.504-1.42 2.256-3.238 2.256-5.451 0-.461.166-.868.502-1.223a1.65 1.65 0 0 1 1.254-.532c.416 0 .824.177 1.221.532.396.355.595.762.595 1.223 0 2.13.709 3.947 2.131 5.45 1.379 1.463 3.174 2.195 5.389 2.195a7.47 7.47 0 0 0 2.914-.564 6.795 6.795 0 0 0 2.349-1.63c1.42-1.504 2.131-3.321 2.131-5.451v-.314a16.125 16.125 0 0 0-1.379-6.298 16.589 16.589 0 0 0-3.634-5.233c-1.504-1.504-3.28-2.684-5.327-3.54a16.383 16.383 0 0 0-6.39-1.285c-2.299 0-4.483.439-6.549 1.316m-30.676-85.476a10.998 10.998 0 0 0-2.256 3.509 11.051 11.051 0 0 0-.814 4.199v60.285c0 3.048 1.064 5.639 3.195 7.77a10.481 10.481 0 0 0 3.51 2.318c1.336.543 2.758.815 4.262.815 1.504 0 2.945-.272 4.324-.815a11.035 11.035 0 0 0 3.635-2.318 11.737 11.737 0 0 0 2.443-3.541c.584-1.316.877-2.725.877-4.23v-31.395l34.529 38.1c2.547 2.799 5.473 4.199 8.774 4.199 1.713 0 3.279-.324 4.699-.971 1.42-.648 2.611-1.535 3.572-2.663a12.193 12.193 0 0 0 2.131-3.666c.502-1.358.752-2.748.752-4.168v-59.72c0-1.504-.293-2.925-.877-4.262a11.36 11.36 0 0 0-2.381-3.51 10.744 10.744 0 0 0-3.572-2.35 11.313 11.313 0 0 0-4.324-.845 11.31 11.31 0 0 0-4.324.846c-1.379.564-2.571 1.347-3.573 2.35a11.325 11.325 0 0 0-2.381 3.509 10.5 10.5 0 0 0-.877 4.262v31.207l-34.404-37.912c-1.838-2.215-4.053-3.572-6.642-4.073h-.188c-.67-.126-1.4-.19-2.193-.19-3.176 0-5.808 1.087-7.897 3.26m156.946 19.175v37.224h-8.773l-11.468-37.224h20.24zm-46.373-41.924c-1.378.586-2.57 1.38-3.571 2.382a11.919 11.919 0 0 0-2.476 3.603 10.417 10.417 0 0 0-.908 4.293v20.993c.04 1.337.312 2.61.814 3.822a11.072 11.072 0 0 0 2.068 3.26c1.796 2.005 4.05 3.153 6.768 3.446l16.293 52.89c.877 2.046 2.214 3.697 4.01 4.95 1.797 1.254 3.864 1.921 6.205 2.006h28.45c1.504 0 2.946-.293 4.324-.878 1.378-.585 2.57-1.379 3.572-2.38a11.158 11.158 0 0 0 2.413-3.573 10.87 10.87 0 0 0 .846-4.26v-48.63c2.84-.209 5.284-1.296 7.332-3.259a10.075 10.075 0 0 0 2.318-3.352c.543-1.276.836-2.643.878-4.105v-20.93c0-1.504-.293-2.946-.878-4.325-.585-1.378-1.378-2.569-2.381-3.57-1.003-1.004-2.193-1.797-3.572-2.383a10.977 10.977 0 0 0-4.324-.877c-1.546 0-2.998.282-4.355.846a11.036 11.036 0 0 0-3.603 2.413c-1.003 1.002-1.797 2.193-2.382 3.571a10.964 10.964 0 0 0-.877 4.325v9.15c-.125 0-.21.02-.251.061h-41.297v-9.21c0-1.505-.293-2.947-.877-4.326-.586-1.378-1.38-2.569-2.382-3.57-1.002-1.004-2.193-1.797-3.571-2.383a10.977 10.977 0 0 0-4.324-.877c-1.463 0-2.883.293-4.262.877m126.006 42.551a19.281 19.281 0 0 1 6.203 4.073c1.754 1.755 3.122 3.812 4.105 6.173.981 2.359 1.472 4.898 1.472 7.614 0 2.632-.49 5.117-1.472 7.457a19.758 19.758 0 0 1-4.105 6.204 19.221 19.221 0 0 1-6.204 4.167c-2.34.98-4.847 1.473-7.52 1.473-2.674 0-5.192-.492-7.55-1.473a18.43 18.43 0 0 1-6.174-4.167 19.19 19.19 0 0 1-4.167-6.204c-.983-2.34-1.473-4.825-1.473-7.457 0-2.716.49-5.255 1.473-7.614a18.4 18.4 0 0 1 4.167-6.173 18.482 18.482 0 0 1 6.173-4.073c2.36-.961 4.877-1.441 7.551-1.441 2.673 0 5.18.48 7.52 1.44m-28.7-18.11a39.432 39.432 0 0 0-8.367 6.455 40.993 40.993 0 0 0-6.486 8.523c-3.76 6.475-5.64 13.473-5.64 20.993 0 7.52 1.88 14.538 5.64 21.056 3.676 6.392 8.626 11.405 14.852 15.04 6.475 3.8 13.494 5.702 21.055 5.702 5.64 0 11-1.076 16.075-3.227a42.018 42.018 0 0 0 13.441-9.056 42.034 42.034 0 0 0 9.056-13.441c2.151-5.076 3.227-10.434 3.227-16.074 0-5.64-1.076-10.998-3.227-16.074-2.153-5.076-5.17-9.536-9.056-13.38-3.885-3.843-8.365-6.84-13.44-8.991-5.077-2.153-10.436-3.228-16.076-3.228-7.436 0-14.455 1.9-21.055 5.702m74.714-4.105a10.818 10.818 0 0 0-3.54 2.351 11.337 11.337 0 0 0-2.382 3.508 10.5 10.5 0 0 0-.877 4.262v60.222c0 1.504.281 2.924.846 4.261a11.123 11.123 0 0 0 2.412 3.572 11.123 11.123 0 0 0 3.603 2.32c1.358.541 2.81.814 4.356.814 2.883 0 5.493-1.045 7.833-3.134l22.873-22.622 22.623 22.622c1.211 1.086 2.443 1.838 3.697 2.256l.626.314c.292 0 .857.103 1.693.313a7.55 7.55 0 0 0 1.942.251c1.504 0 2.945-.273 4.324-.815a11.043 11.043 0 0 0 3.635-2.319 11.123 11.123 0 0 0 2.412-3.572 10.83 10.83 0 0 0 .847-4.26v-60.223c0-1.504-.293-2.925-.878-4.262a11.32 11.32 0 0 0-2.38-3.508 11.46 11.46 0 0 0-3.636-2.35 11.332 11.332 0 0 0-4.324-.847c-1.504 0-2.935.283-4.292.846a10.818 10.818 0 0 0-3.54 2.351 11.303 11.303 0 0 0-2.382 3.508 10.5 10.5 0 0 0-.878 4.262v33.401l-11.467-11.343a10.386 10.386 0 0 0-3.698-2.412 12.99 12.99 0 0 0-4.26-.847 11.78 11.78 0 0 0-4.387.847 10.996 10.996 0 0 0-3.76 2.475l-11.594 11.405v-33.526c0-1.504-.293-2.925-.877-4.262a11.34 11.34 0 0 0-2.382-3.508 10.726 10.726 0 0 0-3.572-2.35 11.323 11.323 0 0 0-4.323-.847c-1.504 0-2.936.283-4.293.846m-811.507-55.278v7.85h-3.671c-5.487 0-8.23-2.302-8.23-6.9 0-1.985.444-3.504 1.33-4.558.886-1.056 2.153-1.582 3.798-1.582 2.953 0 5.21 1.73 6.773 5.19m6.203-4.083c.38-.654.97-1.15 1.773-1.487l-1.203-3.862c-1.646.254-2.934.76-3.861 1.52-.93.76-1.583 1.92-1.963 3.481-2.152-3.377-5.17-5.064-9.051-5.064-2.955 0-5.296.918-7.026 2.754-1.731 1.835-2.596 4.293-2.596 7.374 0 3.545 1.16 6.244 3.482 8.102 2.32 1.856 5.634 2.785 9.938 2.785h4.304v2.85c0 2.32-.475 3.996-1.424 5.031-.95 1.033-2.5 1.551-4.653 1.551-2.321 0-5.022-.592-8.102-1.773l-1.392 3.988c3.713 1.52 7.173 2.28 10.38 2.28 7.216 0 10.824-3.61 10.824-10.825V715.96c0-1.35.19-2.353.57-3.007m29.052 12.122c0 4.515-.537 7.796-1.613 9.843-1.076 2.046-2.712 3.07-4.906 3.07-1.477 0-2.785-.443-3.924-1.33-1.14-.886-2.215-2.088-3.228-3.607v-16.837c1.73-2.744 3.945-4.115 6.646-4.115 4.684 0 7.026 4.325 7.026 12.976m3.197 12.913c1.835-2.997 2.753-7.28 2.753-12.85 0-5.401-1.024-9.684-3.07-12.85-2.047-3.164-4.905-4.746-8.577-4.746-3.291 0-5.95 1.329-7.975 3.988v-15.825l-5.697-.696v46.65h5l.317-4.494c2.279 3.545 5.295 5.317 9.052 5.317 3.628 0 6.36-1.498 8.197-4.494m28.958-10.255c0 6.963-2.3 10.444-6.9 10.444-2.11 0-3.777-.876-5-2.627-1.225-1.752-1.921-4.589-2.09-8.513h13.99v.696zm5.38-4.684h-19.37c.169-3.883.95-6.678 2.343-8.387 1.393-1.709 3.292-2.564 5.697-2.564 1.519 0 2.88.232 4.083.697 1.202.463 2.457 1.223 3.766 2.278l2.532-3.354c-3.123-2.785-6.668-4.178-10.634-4.178-4.347 0-7.713 1.508-10.096 4.526-2.385 3.016-3.576 7.248-3.576 12.691 0 5.444 1.139 9.758 3.417 12.944 2.279 3.186 5.444 4.78 9.495 4.78 4.009 0 7.089-1.425 9.242-4.273 2.152-2.849 3.228-6.91 3.228-12.185 0-.886-.043-1.878-.127-2.975m25.825-14.685v14.812h-12.09v-14.812h-5.697v33.294h5.697V727.67h12.09v13.988h5.697v-33.294h-5.697zm31.775 28.991h-8.482l-.506-8.545c-.212-3.545-.53-6.33-.95-8.355-.422-2.026-.96-3.588-1.614-4.684-.655-1.098-1.53-2.068-2.627-2.912h14.179v24.496zm8.545-24.496v-14.052h-4.178l-.886 9.558H750.68l-.886-9.558h-4.177v14.052h2.025c.886.717 1.592 1.508 2.12 2.373.528.865.992 2.31 1.393 4.336.4 2.026.728 4.916.98 8.672l.888 13.419h19.052v-28.8h2.975zm22.66 4.177v7.85h-3.67c-5.488 0-8.23-2.302-8.23-6.9 0-1.985.443-3.504 1.33-4.558.885-1.056 2.152-1.582 3.797-1.582 2.953 0 5.211 1.73 6.773 5.19m6.203-4.083c.38-.654.97-1.15 1.773-1.487l-1.203-3.862c-1.646.254-2.934.76-3.86 1.52-.93.76-1.584 1.92-1.964 3.481-2.152-3.377-5.169-5.064-9.05-5.064-2.956 0-5.297.918-7.027 2.754-1.73 1.835-2.596 4.293-2.596 7.374 0 3.545 1.161 6.244 3.482 8.102 2.32 1.856 5.634 2.785 9.938 2.785h4.304v2.85c0 2.32-.475 3.996-1.424 5.031-.95 1.033-2.5 1.551-4.653 1.551-2.32 0-5.022-.592-8.102-1.773l-1.392 3.988c3.713 1.52 7.173 2.28 10.381 2.28 7.215 0 10.823-3.61 10.823-10.825V715.96c0-1.35.19-2.353.57-3.007m42.345-4.589v14.812h-12.09v-14.812h-5.697v33.294h5.697V727.67h12.09v13.988h5.697v-33.294h-5.697zm33.801 19.369c0 6.963-2.3 10.444-6.9 10.444-2.11 0-3.778-.876-5-2.627-1.226-1.752-1.922-4.589-2.09-8.513h13.99v.696zm5.38-4.684h-19.37c.168-3.883.95-6.678 2.342-8.387 1.393-1.709 3.292-2.564 5.697-2.564 1.52 0 2.88.232 4.083.697 1.202.463 2.457 1.223 3.766 2.278l2.532-3.354c-3.123-2.785-6.668-4.178-10.634-4.178-4.347 0-7.713 1.508-10.096 4.526-2.385 3.016-3.576 7.248-3.576 12.691 0 5.444 1.14 9.758 3.417 12.944 2.28 3.186 5.444 4.78 9.495 4.78 4.01 0 7.09-1.425 9.242-4.273 2.152-2.849 3.228-6.91 3.228-12.185 0-.886-.043-1.878-.127-2.975m23.231 14.306h-8.483l-.506-8.545c-.212-3.545-.529-6.33-.95-8.355-.422-2.026-.96-3.588-1.614-4.684-.655-1.098-1.53-2.068-2.627-2.912h14.18v24.496zm8.544-24.496v-14.052h-4.178l-.886 9.558h-19.306l-.886-9.558h-4.177v14.052h2.025c.886.717 1.592 1.508 2.121 2.373.527.865.991 2.31 1.392 4.336.401 2.026.728 4.916.981 8.672l.887 13.419h19.052v-28.8h2.975zm25.319 5.633c0 2.067-.528 3.534-1.582 4.399-1.056.865-2.68 1.298-4.874 1.298h-5.634v-11.647h5.128c4.641 0 6.962 1.983 6.962 5.95m-12.09 19.496v-10.001h5.381c3.628 0 5.443 1.709 5.443 5.127 0 1.773-.506 3.08-1.519 3.924-1.013.844-2.595 1.266-4.747 1.266-1.435 0-2.954-.105-4.558-.316m17.914-19.622c0-3.334-1.14-5.834-3.419-7.501-2.278-1.668-5.402-2.5-9.367-2.5h-10.825v32.978c3.967.759 7.385 1.139 10.255 1.139 3.713 0 6.615-.802 8.703-2.406 2.09-1.604 3.134-3.797 3.134-6.582 0-3.714-2.069-6.056-6.204-7.026 5.148-.592 7.723-3.292 7.723-8.102m31.964-10.002h-5.443v16.837c0 3.713.295 7.153.886 10.318l-13.04-27.155h-6.139v33.294h5.381v-16.394c0-3.503-.254-7.068-.76-10.697l12.912 27.091h6.203v-33.294zm43.866 33.295l-7.343-15.508 8.356-17.786h-5.698l-7.152 15.38h-4.051v-15.38h-5.19v15.38h-3.988l-7.216-15.38h-5.697l8.418 17.786-7.405 15.508h5.38l6.457-13.8h4.05v13.8h5.19v-13.8h4.116l6.456 13.8h5.317zm30.635-33.295h-5.443v16.837c0 3.713.295 7.153.886 10.318l-13.04-27.155h-6.139v33.294h5.381v-16.394c0-3.503-.254-7.068-.76-10.697l12.912 27.091h6.203v-33.294zm40.321 0h-5.443l-1.14 16.647c-.212 3.08-.316 5.675-.316 7.786l.063 3.481-6.836-24.116h-5.001l-6.646 24.053.063-3.735c0-2.658-.085-5.148-.253-7.469l-1.012-16.647h-5.381l2.595 33.294h6.963l6.203-24.052 6.456 24.052h7.09l2.595-33.294zm14.304 26.427c-1.309-2.089-1.962-5.349-1.962-9.779 0-8.652 2.531-12.976 7.596-12.976 5.063 0 7.595 4.345 7.595 13.039 0 4.431-.632 7.68-1.899 9.748-1.266 2.067-3.143 3.101-5.633 3.101s-4.389-1.044-5.697-3.133m15.635 3.197c2.362-2.997 3.545-7.301 3.545-12.913 0-5.402-1.203-9.675-3.609-12.818-2.405-3.144-5.718-4.716-9.937-4.716-4.263 0-7.586 1.541-9.97 4.621-2.385 3.08-3.576 7.363-3.576 12.85 0 5.527 1.203 9.821 3.608 12.881 2.406 3.059 5.74 4.589 10.001 4.589 4.262 0 7.574-1.499 9.938-4.494m28.231 3.608c1.476-.592 2.89-1.5 4.24-2.722l-2.532-3.418c-1.012.8-2.025 1.402-3.038 1.804-1.013.4-2.11.6-3.291.6-2.49 0-4.421-1.054-5.792-3.163-1.372-2.111-2.057-5.403-2.057-9.875 0-8.355 2.616-12.533 7.849-12.533 1.18 0 2.257.2 3.228.6.97.402 2.003 1.003 3.102 1.805l2.658-3.481c-2.701-2.448-5.76-3.671-9.18-3.671-4.261 0-7.605 1.476-10.031 4.43-2.427 2.954-3.64 7.216-3.64 12.787 0 3.629.559 6.773 1.678 9.43 1.118 2.659 2.7 4.706 4.747 6.14 2.046 1.435 4.44 2.153 7.185 2.153 1.772 0 3.395-.296 4.874-.886m31.141.063l-.696-4.557h-9.242v-28.737h-5.697v28.737h-9.684v4.557h25.32zm28.926-33.295h-5.443v16.837c0 3.713.295 7.153.886 10.318l-13.04-27.155h-6.14v33.294h5.382v-16.394c0-3.503-.254-7.068-.76-10.697l12.912 27.091h6.203v-33.294zm40.952 28.991h-8.481l-.507-8.545c-.211-3.545-.528-6.33-.95-8.355-.421-2.026-.959-3.588-1.614-4.684-.654-1.098-1.529-2.068-2.627-2.912h14.179v24.496zm8.546-24.496v-14.052h-4.178l-.887 9.558h-19.305l-.886-9.558h-4.178v14.052h2.026c.885.717 1.592 1.508 2.12 2.373.527.865.991 2.31 1.392 4.336.401 2.026.729 4.916.982 8.672l.886 13.419h19.052v-28.8h2.976zm30.319 28.8v-33.294h-5.697v28.8h-9.116l-.885-12.216c-.338-4.39-.75-7.628-1.235-9.717-.485-2.09-1.255-3.671-2.31-4.747-1.055-1.076-2.722-2.015-5-2.817l-1.393 4.368c1.181.506 2.046 1.149 2.595 1.93.548.78.95 1.972 1.203 3.577.253 1.603.506 4.24.76 7.912l1.14 16.204h19.938zm25.634-16.268v12.09h-4.43c-2.238 0-3.904-.475-5-1.424-1.098-.95-1.646-2.459-1.646-4.526 0-2.11.515-3.66 1.551-4.652 1.033-.992 2.626-1.488 4.778-1.488h4.747zm5.697 16.268v-33.295h-5.697v12.976h-6.329l-6.33-12.976h-5.95l7.153 14.305c-3.672 1.646-5.507 4.578-5.507 8.8 0 3.29 1.086 5.811 3.26 7.563 2.173 1.751 5.306 2.627 9.4 2.627h10zm31.014-6.868c-1.309-2.089-1.962-5.349-1.962-9.779 0-8.652 2.531-12.976 7.596-12.976 5.063 0 7.595 4.345 7.595 13.039 0 4.431-.632 7.68-1.899 9.748-1.266 2.067-3.143 3.101-5.633 3.101s-4.389-1.044-5.697-3.133m15.635 3.197c2.362-2.997 3.545-7.301 3.545-12.913 0-5.402-1.203-9.675-3.609-12.818-2.405-3.144-5.718-4.716-9.937-4.716-4.263 0-7.586 1.541-9.97 4.621-2.385 3.08-3.576 7.363-3.576 12.85 0 5.527 1.203 9.821 3.608 12.881 2.406 3.059 5.739 4.589 10.001 4.589s7.574-1.499 9.938-4.494m30.826 3.671l-.696-4.557h-9.242v-28.737h-5.697v28.737h-9.684v4.557h25.319zm18.165-4.304h-8.481l-.507-8.545c-.211-3.545-.528-6.33-.95-8.355-.421-2.026-.959-3.588-1.614-4.684-.654-1.098-1.529-2.068-2.627-2.912h14.179v24.496zm8.546-24.496v-14.052h-4.178l-.887 9.558h-19.305l-.886-9.558h-4.178v14.052h2.026c.885.717 1.592 1.508 2.12 2.373.527.865.991 2.31 1.392 4.336.401 2.026.729 4.916.982 8.672l.886 13.419h19.052v-28.8h2.976zm33.675 28.8h5.696v-33.294h-5.696v33.294zm-11.806-27.408c1.16 1.097 1.741 2.933 1.741 5.507 0 2.363-.528 4.103-1.583 5.222-1.054 1.118-2.89 1.677-5.507 1.677h-3.291v-14.052h3.544c2.237 0 3.935.548 5.096 1.646m7.564 5.443c0-3.798-1.119-6.636-3.354-8.513-2.237-1.878-5.213-2.817-8.926-2.817h-9.621v33.295h5.697v-10.888h3.165c8.693 0 13.039-3.692 13.039-11.077m32.282 6.52l10.255-17.85h-6.267l-7.47 14.432-7.405-14.432h-6.077l10.255 17.597-9.115 15.697h6.203l6.267-12.406 6.266 12.406h6.013l-8.925-15.444zm29.812-9.178v7.85h-3.67c-5.487 0-8.229-2.302-8.229-6.9 0-1.985.443-3.504 1.33-4.558.884-1.056 2.151-1.582 3.797-1.582 2.953 0 5.21 1.73 6.772 5.19m6.203-4.083c.38-.654.971-1.15 1.773-1.487l-1.203-3.862c-1.645.254-2.933.76-3.86 1.52-.93.76-1.583 1.92-1.963 3.481-2.152-3.377-5.17-5.064-9.052-5.064-2.954 0-5.296.918-7.026 2.754-1.73 1.835-2.595 4.293-2.595 7.374 0 3.545 1.161 6.244 3.482 8.102 2.32 1.856 5.633 2.785 9.937 2.785h4.304v2.85c0 2.32-.475 3.996-1.424 5.031-.949 1.033-2.5 1.551-4.652 1.551-2.32 0-5.023-.592-8.103-1.773l-1.392 3.988c3.713 1.52 7.174 2.28 10.381 2.28 7.216 0 10.824-3.61 10.824-10.825V715.96c0-1.35.19-2.353.57-3.007" fill="#fff"/><path d="M507.454 729.378l-4.057-4.043a3.763 3.763 0 0 0-5.31 0l-4.057 4.043c-24.91 22.035-41.19 36.891-41.19 55.111 0 14.826 11.509 26.334 26.334 26.334 7.169 0 14.315-2.957 19.514-7.887a2.993 2.993 0 0 1 4.108 0c5.199 4.93 12.345 7.887 19.514 7.887 14.825 0 26.334-11.508 26.334-26.334 0-18.22-16.281-33.076-41.19-55.11m90.149 89.765l-87.997 63.316a14.737 14.737 0 0 1-17.211 0l-31.674-22.79v9.232a3.364 3.364 0 0 1-3.364 3.364h-20.58a3.364 3.364 0 0 1-3.364-3.364v-28.88l-29.016-20.878c-4.214-3.032-2.07-9.686 3.123-9.686a3.364 3.364 0 0 0 3.364-3.364V704.051c0-7.768 6.297-14.066 14.065-14.066h152.103c7.768 0 14.065 6.298 14.065 14.066v102.043a3.364 3.364 0 0 0 3.364 3.364c5.192 0 7.337 6.654 3.122 9.686" fill="#a5ff76"/></g></svg>