<svg xmlns="http://www.w3.org/2000/svg" viewBox="0 0 283.46 283.46"><path d="M200.133 157.32a11.072 11.072 0 0 0-7.881-3.264 11.072 11.072 0 0 0-7.881 3.264l-9.678 9.678-14.194-14.194 43.496-43.494a56.828 56.828 0 0 0 22.498 4.613h.001c15.248 0 29.576-5.948 40.341-16.746 14.694-14.74 20.177-36.316 14.308-56.309a3.432 3.432 0 0 0-5.722-1.456l-35.874 35.983c-2.153-.873-7.577-3.85-17.615-13.858-10.038-10.008-13.034-15.423-13.915-17.574l35.872-35.985a3.433 3.433 0 0 0-1.474-5.719A57.18 57.18 0 0 0 226.489 0c-15.249 0-29.574 5.946-40.337 16.744-16.893 16.946-20.87 41.948-11.981 62.704l-43.515 43.514-44.538-44.538c-.039-.076-.066-.154-.109-.229L65.651 43.294a4.781 4.781 0 0 0-1.403-1.518L29.906 17.948a4.775 4.775 0 0 0-6.1.547l-15.3 15.3a4.775 4.775 0 0 0-.547 6.1l23.828 34.342a4.77 4.77 0 0 0 1.518 1.403l34.902 20.358c.077.045.158.078.237.118l44.528 44.528-33.508 33.508a56.823 56.823 0 0 0-22.497-4.613c-15.25 0-29.577 5.947-40.342 16.746-14.694 14.74-20.176 36.317-14.306 56.307a3.43 3.43 0 0 0 5.722 1.456l35.874-35.984c2.153.874 7.576 3.853 17.613 13.858 10.04 10.009 13.036 15.423 13.916 17.574l-35.872 35.985a3.433 3.433 0 0 0 1.474 5.718 57.134 57.134 0 0 0 15.926 2.261c15.247 0 29.573-5.947 40.336-16.745 10.742-10.776 16.645-25.089 16.622-40.305a56.833 56.833 0 0 0-4.617-22.424l33.502-33.501 14.194 14.194-9.677 9.677a11.077 11.077 0 0 0-3.265 7.882 11.07 11.07 0 0 0 3.264 7.881l68.364 68.363a11.07 11.07 0 0 0 7.88 3.264c2.977 0 5.776-1.159 7.882-3.264l37.036-37.037a11.07 11.07 0 0 0 3.266-7.882c0-2.977-1.159-5.776-3.264-7.881l-68.362-68.362zm24.198 96.844a6.234 6.234 0 0 1-8.821 0l-43.859-43.858a6.237 6.237 0 1 1 8.821-8.819l43.858 43.857a6.236 6.236 0 0 1 .001 8.82zm19.846-19.846a6.237 6.237 0 0 1-8.821 0l-43.857-43.859a6.237 6.237 0 1 1 8.82-8.82l43.858 43.859a6.238 6.238 0 0 1 0 8.82z" fill="#fff"/></svg>