<svg xmlns="http://www.w3.org/2000/svg" viewBox="0 0 105.11525 75.829124" height="75.829" width="105.115"><defs><clipPath id="a"><path d="M0 60.663h84.092V0H0v60.663z"/></clipPath></defs><g clip-path="url(#a)" transform="matrix(1.25 0 0 -1.25 0 75.83)" stroke="#9ccc65" fill="none" stroke-width="2" stroke-linecap="round" stroke-linejoin="round" stroke-miterlimit="10"><path d="M57.798 7.222H1v52.441h78.32V39.479M1 20.703h57.316"/><path d="M41.678 13.851a1.519 1.519 0 1 0-3.037.001 1.519 1.519 0 0 0 3.037-.001zM45.27 1H35.048v6.222H45.27V1zM26.901 1h26.517m25.823 7.999H62.168v25.628h17.073V8.999z"/><path d="M83.092 1H58.316v37.479h24.776V1z"/></g></svg>