<svg xmlns="http://www.w3.org/2000/svg" viewBox="0 0 75.829124 75.829124" height="75.829" width="75.829"><defs><clipPath id="a"><path d="M0 60.663h60.663V0H0v60.663z"/></clipPath></defs><g clip-path="url(#a)" transform="matrix(1.25 0 0 -1.25 0 75.83)" stroke="#9ccc65" fill="none" stroke-width="2" stroke-linecap="round" stroke-linejoin="round" stroke-miterlimit="10"><path d="M59.663 30.332C59.663 14.132 46.531 1 30.331 1 14.132 1 1.001 14.132 1.001 30.332 1 46.53 14.131 59.664 30.33 59.664c16.2 0 29.332-13.133 29.332-29.332z"/><path d="M26.476 38.977a4.983 4.983 0 1 0-9.966 0 4.983 4.983 0 0 0 9.966 0zM41.933 23.52a4.983 4.983 0 1 0-9.966.001 4.983 4.983 0 0 0 9.966 0zm-29.859-9.669L46.62 48.396"/></g></svg>