<svg xmlns="http://www.w3.org/2000/svg" viewBox="0 0 112.64238 75.047752" height="75.048" width="112.642"><defs><clipPath id="a"><path d="M0 60.038h90.114V0H0v60.038z"/></clipPath></defs><g clip-path="url(#a)" transform="matrix(1.25 0 0 -1.25 0 75.048)" fill="none" stroke="#9ccc65" stroke-width="2" stroke-linecap="round" stroke-linejoin="round" stroke-miterlimit="10"><path d="M61.545 32.595l-3.033 4.77h1.818a1.362 1.362 0 0 1 1.149 2.092L50.503 56.722a1.36 1.36 0 0 1-2.296 0L37.232 39.457a1.36 1.36 0 0 1 1.148-2.091h1.818l-2.477-3.897m4.311 13.587l-7.204 11.333a1.401 1.401 0 0 1-2.365 0L21.157 40.604a1.402 1.402 0 0 1 1.184-2.153h1.872l-2.579-4.06"/><path d="M81.216 13.101l-2.93 4.606h1.05c1.059 0 1.7 1.17 1.133 2.062l-5.192 8.17h1.342c.792 0 1.273.874.848 1.543l-8.105 12.75a1.005 1.005 0 0 1-1.696 0l-8.105-12.75a1.005 1.005 0 0 1 .848-1.544h1.343l-5.193-8.169a1.342 1.342 0 0 1 1.133-2.062h1.048l-5.763-9.066c-.738-1.16.096-2.68 1.47-2.68h17.724"/><path d="M71.924 1.315h-6.82v4.646h6.82V1.315zM28.255 36.54L5.304 29.094V1h45.902v28.094L28.255 36.54zM1 1h88.114M51.206 5.64H5.304m13.584 7.881h19.145M22.853 5.93v7.591M33.646 5.93v7.591"/><path d="M13.447 15.914l.97-6.592h5.622m-5.623 0V5.929m5.622 3.393V5.929m23.007 9.985l-.969-6.592h-5.622m0 0V5.929m5.622 3.393V5.929M28.255 36.366v-5.383m0-.203a4.416 4.416 0 0 1-4.416-4.415h8.832a4.416 4.416 0 0 1-4.416 4.416zM72.17 1v5.481M84.92 1v5.481m-4.229 6.792V9.955h-8.52V5.64h12.75v7.633h-4.23z"/></g></svg>