<svg xmlns="http://www.w3.org/2000/svg" viewBox="0 0 112.64238 80.558876" height="80.559" width="112.642"><defs><clipPath id="a"><path d="M0 64.447h90.114V0H0v64.447z"/></clipPath></defs><g stroke="#9ccc65" stroke-linecap="round" stroke-linejoin="round" stroke-miterlimit="10"><path d="M108.688 73.33h-84.46V49.961h84.46v23.37z" fill="none" stroke-width="2.5"/><g clip-path="url(#a)" transform="matrix(1.25 0 0 -1.25 0 80.559)" fill="red" fill-opacity="0" stroke-width="2"><path d="M26.914 1h-3.738v4.783h3.738V1zm56.17 0h-3.738v4.783h3.738V1zM21.491 41.994V24.478h63.35v25.359c-6.079 3.004-17.983 5.044-31.675 5.044-12.742 0-23.936-1.767-30.327-4.433"/><path d="M38.456 35.413c-5.436 0-10.161-.629-12.574-1.554v-7.827c2.413-.925 7.138-1.554 12.574-1.554s10.16.63 12.575 1.554v7.828c-2.414.925-7.14 1.554-12.575 1.554zm29.422 0c-5.435 0-10.16-.629-12.574-1.554v-7.827c2.413-.925 7.14-1.554 12.574-1.554 5.436 0 10.161.63 12.575 1.554v7.828c-2.414.925-7.139 1.554-12.575 1.554zM1 1h88.114M14.063 1v40.18m9.927.813H4.136L7.06 63.447h14.009l1.77-13 1.153-8.454zm-4.608-26.72c.525-1.498 1.491-2.505 2.6-2.505 1.106 0 2.072 1.007 2.597 2.505m15.593 0c.526-1.498 1.491-2.505 2.6-2.505 1.106 0 2.072 1.007 2.597 2.505m5.198 0c.526-1.498 1.491-2.505 2.6-2.505 1.106 0 2.072 1.007 2.598 2.505m-25.988 0c.525-1.498 1.491-2.505 2.6-2.505 1.106 0 2.072 1.007 2.597 2.505m-5.197 0c-.526 1.498-1.49 2.506-2.599 2.506-1.108 0-2.073-1.008-2.599-2.506m15.593 0c-.526 1.498-1.49 2.506-2.599 2.506-1.108 0-2.073-1.008-2.599-2.506m15.593 0c-.526 1.498-1.49 2.506-2.599 2.506-1.107 0-2.073-1.008-2.599-2.506m25.988 0c.526-1.498 1.491-2.505 2.6-2.505 1.107 0 2.072 1.007 2.598 2.505m5.197 0c.527-1.498 1.492-2.505 2.6-2.505 1.107 0 2.072 1.007 2.598 2.505m-25.988 0c.526-1.498 1.491-2.505 2.6-2.505 1.107 0 2.072 1.007 2.598 2.505m-5.198 0c-.526 1.498-1.49 2.506-2.599 2.506-1.107 0-2.073-1.008-2.599-2.506m15.593 0c-.525 1.498-1.49 2.506-2.599 2.506-1.107 0-2.073-1.008-2.598-2.506m15.592 0c-.524 1.498-1.49 2.506-2.598 2.506-1.108 0-2.074-1.008-2.599-2.506M18.119 63.447l2.333-21.454m-4.205.35l-.859 20.74m-5.441.364L7.614 41.993m5.333 21.454l-1.389-21.454m-3.944 0v-7.289m2-1.999a2 2 0 1 0-4.002.001 2 2 0 0 0 4.002-.001z"/></g></g></svg>