<svg xmlns="http://www.w3.org/2000/svg" viewBox="0 0 102.591 60.324875" height="60.325" width="102.591"><defs><clipPath id="a"><path d="M0 48.26h82.073V0H0v48.26z"/></clipPath><clipPath id="b"><path d="M0 48.26h82.073V0H0v48.26z"/></clipPath><clipPath id="c"><path d="M0 48.26h82.073V0H0v48.26z"/></clipPath><clipPath id="d"><path d="M0 48.26h82.073V0H0v48.26z"/></clipPath><clipPath id="e"><path d="M0 48.26h82.073V0H0v48.26z"/></clipPath></defs><g stroke="#9ccc65"><g clip-path="url(#a)" transform="matrix(1.25 0 0 -1.25 0 60.325)"><path d="M1 1h80.073" fill="none" stroke-width="2" stroke-linecap="round" stroke-linejoin="round" stroke-miterlimit="10"/></g><path d="M69.6 9.334H14.966l.952 8.125h52.726l.954-8.125z" fill="none" stroke-width="2.5" stroke-linecap="round" stroke-linejoin="round" stroke-miterlimit="10"/><g clip-path="url(#b)" transform="matrix(1.25 0 0 -1.25 0 60.325)"><path d="M16.276 1.095h35.1l2.734 26.322H13.542l2.734-26.322zm28.151 26.323l-.37-26.322" fill="none" stroke-width="2" stroke-linecap="round" stroke-linejoin="round" stroke-miterlimit="10"/></g><path d="M55.795 9.595l-.126 7.865" fill="none" stroke-width="2.5" stroke-linecap="round" stroke-linejoin="round" stroke-miterlimit="10"/><g clip-path="url(#c)" transform="matrix(1.25 0 0 -1.25 0 60.325)"><path d="M23.237 27.418l.37-26.323" fill="none" stroke-width="2" stroke-linecap="round" stroke-linejoin="round" stroke-miterlimit="10"/></g><path d="M28.78 9.334l.13 8.125" fill="none" stroke-width="2.5" stroke-linecap="round" stroke-linejoin="round" stroke-miterlimit="10"/><g clip-path="url(#d)" transform="matrix(1.25 0 0 -1.25 0 60.325)"><path d="M33.826 27.418V1.095" fill="none" stroke-width="2" stroke-linecap="round" stroke-linejoin="round" stroke-miterlimit="10"/></g><path d="M42.282 9.334v8.125m28.824 8.593H13.294V17.46h57.812v8.593z" fill="none" stroke-width="2.5" stroke-linecap="round" stroke-linejoin="round" stroke-miterlimit="10"/><g clip-path="url(#e)" transform="matrix(1.25 0 0 -1.25 0 60.325)" fill="none" stroke-width="2" stroke-linecap="round" stroke-linejoin="round" stroke-miterlimit="10"><path d="M69.812 1.063a9.229 9.229 0 0 1 9.23 9.23h-18.46a9.23 9.23 0 0 1 9.23-9.23zm-9.23 9.23l-1.23 30.869m-.001-.001a6.099 6.099 0 1 1-12.197 0M1.198 13.852c-.618-1.848.447-4.72 2.783-7.055 2.335-2.335 5.206-3.401 7.055-2.783.618 1.848-.448 4.72-2.783 7.055s-5.206 3.4-7.055 2.783z"/><path d="M1.198 13.852c-.618-1.848.447-4.72 2.783-7.055 2.335-2.335 5.206-3.401 7.055-2.783.618 1.848-.448 4.72-2.783 7.055s-5.206 3.4-7.055 2.783z"/><path d="M11.036 4.014c-1.73-.58-4.354.318-6.6 2.349C2.814 6.11 1.524 5.41 1 4.482c.578-1.32 2.586-2.363 5.022-2.484 2.438-.121 4.538.719 5.243 1.974-.042.097-.107.188-.165.282a4.435 4.435 0 0 0-.064-.24z"/><path d="M11.133 17.881c-1.696-.846-2.94-3.507-3.008-6.691l.127-.121c2.33-2.329 3.395-5.191 2.787-7.04.032-.017.062-.044.094-.061 1.744.87 3.021 3.654 3.021 6.956 0 3.303-1.277 6.087-3.02 6.957z"/></g></g></svg>