<svg xmlns="http://www.w3.org/2000/svg" viewBox="0 0 247.0925 244.06" height="244.06" width="247.093"><defs><clipPath id="a"><path d="M0 195.248h197.674V0H0v195.248z"/></clipPath></defs><g clip-path="url(#a)" transform="matrix(1.25 0 0 -1.25 0 244.06)"><path d="M105.29 39.393l-4.056-4.043a3.763 3.763 0 0 0-5.31 0l-4.057 4.043c-24.91 22.035-41.19 36.89-41.19 55.11 0 14.827 11.509 26.335 26.334 26.335 7.169 0 14.315-2.957 19.514-7.887a2.993 2.993 0 0 1 4.108 0c5.199 4.93 12.345 7.887 19.514 7.887 14.825 0 26.334-11.508 26.334-26.334 0-18.22-16.281-33.076-41.19-55.111m90.149 89.766l-87.997 63.316a14.737 14.737 0 0 1-17.211 0l-31.674-22.79v9.232a3.364 3.364 0 0 1-3.364 3.364h-20.58a3.364 3.364 0 0 1-3.364-3.364v-28.881L2.234 129.159c-4.214-3.032-2.07-9.686 3.123-9.686a3.364 3.364 0 0 0 3.364-3.364V14.066C8.72 6.298 15.018 0 22.786 0h152.103c7.768 0 14.065 6.298 14.065 14.066v102.043a3.364 3.364 0 0 0 3.364 3.364c5.192 0 7.337 6.654 3.122 9.686" fill="#84cd5d"/></g></svg>