<svg xmlns="http://www.w3.org/2000/svg" viewBox="0 0 95.629875 76.738876" height="76.739" width="95.63"><defs><clipPath id="a"><path d="M0 61.391h76.504V0H0v61.391z"/></clipPath></defs><g clip-path="url(#a)" transform="matrix(1.25 0 0 -1.25 0 76.739)" stroke="#9ccc65"><path d="M20.258 21.438c0 10.636-8.622 19.258-19.259 19.258m.001.437c10.636 0 19.259 8.622 19.259 19.258m-.001 0c0-10.636 8.622-19.258 19.258-19.258m0-.271c-10.636 0-19.258-8.622-19.258-19.258M42.558 1a9.629 9.629 0 0 1-9.629 9.629m.001.219a9.629 9.629 0 0 1 9.628 9.629m0 0c0-5.318 4.312-9.63 9.63-9.63m-.001-.135c-5.317 0-9.629-4.31-9.629-9.629m20.488 20.863c0 6.88-5.577 12.457-12.456 12.457m0 .283c6.88 0 12.456 5.577 12.456 12.457m0 0c0-6.88 5.578-12.457 12.457-12.457m0-.176c-6.879 0-12.457-5.576-12.457-12.456" fill="none" stroke-width="2" stroke-linecap="round" stroke-linejoin="round" stroke-miterlimit="10"/></g></svg>