<svg id="Слой_1" xmlns="http://www.w3.org/2000/svg" viewBox="0 0 1920 1080"><style>.st0{fill:#fff}.st1{fill:#c3ff7f}</style><path class="st0" d="M632.6 307.7c-1.4-.6-2.5-1.3-3.5-2.4-1-1-1.8-2.2-2.4-3.5-.6-1.3-.9-2.8-.9-4.3v-60.2c0-1.5.3-2.9.8-4.3.6-1.3 1.4-2.5 2.4-3.6 1-1 2.2-1.8 3.5-2.3 1.4-.5 2.8-.8 4.3-.8h27.6c3.4 0 6.7.6 9.7 1.9 3 1.3 5.7 3 8 5.3s4.1 5 5.4 8c1.3 3 1.9 6.3 1.9 9.7 0 5.3-1.5 10-4.6 14.2 2.1 2.4 3.8 5.1 5 8.1 1.2 2.9 1.8 6 1.8 9.2 0 3.5-.7 6.8-2 9.9-1.3 3.2-3.2 5.9-5.6 8.3-2.4 2.4-5.1 4.2-8.3 5.6-3.2 1.3-6.5 2-9.9 2h-29c-1.5 0-2.9-.3-4.2-.8zm30.7-51c.4 0 .9-.2 1.3-.5.5-.3.9-.7 1.3-1.2.8-1 1.3-2.1 1.3-3.1s-.5-1.9-1.5-2.5c-.8-.5-1.7-.8-2.6-.8h-15v8h15.2zm1.6 29.6c.4 0 .9-.2 1.5-.5s1.1-.7 1.5-1.2c1-1.2 1.6-2.4 1.6-3.5s-.5-2.2-1.6-3.1c-.5-.4-1-.7-1.5-.9-.5-.2-1-.3-1.4-.3h-17v9.5h16.9zm40.1 21.6c-1.4-.6-2.6-1.3-3.6-2.3-1-1-1.8-2.2-2.4-3.5-.6-1.3-.9-2.8-.9-4.3v-60.2c0-1.5.3-2.9.9-4.3.6-1.4 1.4-2.6 2.4-3.6s2.2-1.8 3.6-2.4c1.4-.6 2.8-.9 4.3-.9h24.3c4.3 0 8.5.8 12.4 2.5 3.9 1.7 7.4 4.1 10.4 7.1s5.3 6.6 6.9 10.5c1.6 4 2.5 8.1 2.5 12.5 0 4.7-1 9.2-2.9 13.5-1.9 4.3-4.6 7.9-8.1 11l5.3 6.1c2.1 2.4 3.1 5 3.1 7.6 0 1.5-.3 3-.9 4.4-.6 1.4-1.4 2.6-2.4 3.6s-2.2 1.8-3.6 2.4c-1.3.6-2.7.8-4.2.8-3.1 0-5.6-1-7.5-3.1l-12.5-13.7h-11.8v5.9c0 1.5-.3 2.9-.8 4.3-.6 1.3-1.3 2.5-2.4 3.5-1 1-2.2 1.8-3.6 2.3-1.4.6-2.8.8-4.3.8s-2.8 0-4.2-.5zm29.1-38.2c1.1 0 2.2-.3 3.4-.9 1.1-.6 2.2-1.4 3.1-2.4 2-2.3 3.1-4.8 3.1-7.3 0-1.3-.3-2.6-.8-3.8s-1.3-2.4-2.3-3.4c-.9-1-2-1.8-3.1-2.4-1.1-.6-2.3-.8-3.4-.8h-13.5v21h13.5zm57.8 37.2c-3.8-1.5-7.2-3.7-10.2-6.6-3.1-3-5.4-6.5-7.1-10.7-1.7-4.1-2.5-8.8-2.5-13.8v-16.7c0-5.1.8-9.7 2.5-13.9 1.7-4.2 4.1-7.7 7.1-10.7 2.9-2.8 6.3-5 10.2-6.5 3.8-1.5 7.9-2.3 12.1-2.3 4.2 0 8.2.8 12.1 2.3 3.9 1.5 7.2 3.7 10.1 6.5 3 3 5.4 6.6 7 10.7 1.7 4.2 2.5 8.8 2.5 13.9l-22.4-.2c0-4.3-1.1-7.3-3.3-9.1-1.5-1.1-3.5-1.7-6.1-1.7-2.6 0-4.7.6-6.1 1.7-2.2 1.8-3.3 4.8-3.3 9.1v17c0 4.3 1.1 7.2 3.3 9 1.5 1.2 3.5 1.8 6.1 1.8 2.6 0 4.6-.6 6.1-1.8 2.2-1.7 3.3-4.7 3.3-9V259h22.4v16.7c0 5.1-.8 9.7-2.5 13.8-1.7 4.1-4 7.7-7 10.7-2.9 2.9-6.3 5.1-10.1 6.6-3.9 1.5-7.9 2.3-12.1 2.3-4.3.1-8.3-.7-12.1-2.2zm61.3 1.6c-1.4-.6-2.6-1.4-3.6-2.4s-1.9-2.3-2.5-3.6c-.6-1.4-.9-2.8-.9-4.4v-37.8c0-5.2.7-10 2.1-14.3 1.4-4.3 3.4-7.9 6.1-10.9 2.7-3 5.9-5.4 9.8-7 3.8-1.6 8.2-2.4 13.1-2.4 9.8 0 17.5 3 22.9 9 5.6 6.2 8.5 15.1 8.5 26.6v36.8c0 1.5-.3 3-.9 4.4-.6 1.4-1.4 2.6-2.4 3.6s-2.3 1.9-3.7 2.4c-1.4.6-2.9.9-4.5.9s-3.1-.3-4.5-.9c-1.4-.6-2.6-1.4-3.6-2.4s-1.9-2.3-2.5-3.6c-.6-1.4-.9-2.8-.9-4.4v-37c0-4.4-.6-7.6-1.8-9.6-1.2-2-3.2-2.9-6.1-2.9-1.7 0-3.1.2-4.1.5-1 .4-1.9 1-2.6 1.9-.7 1-1.2 2.3-1.5 4-.3 1.7-.5 3.9-.5 6.7V298c0 1.5-.3 3-.9 4.4-.6 1.4-1.4 2.6-2.5 3.6-1 1-2.3 1.9-3.7 2.4-1.4.6-2.9.9-4.5.9-1.4.1-2.9-.2-4.3-.8zm76.4.1c-1.4-.6-2.5-1.3-3.5-2.3-1-1-1.8-2.2-2.4-3.5-.6-1.3-.9-2.8-.9-4.3v-62.2c0-1.5.3-2.9.8-4.3.6-1.3 1.4-2.5 2.4-3.6 1-1 2.2-1.8 3.5-2.3 1.4-.5 2.8-.8 4.3-.8s2.9.3 4.3.8 2.6 1.3 3.6 2.3c1 1 1.8 2.2 2.4 3.6.6 1.3.8 2.8.8 4.3v62.2c0 1.5-.3 2.9-.9 4.3-.6 1.3-1.4 2.5-2.4 3.5s-2.2 1.8-3.6 2.3c-1.4.6-2.8.8-4.3.8-1.3.1-2.7-.2-4.1-.8zm33.2-.1c-1.4-.6-2.6-1.4-3.6-2.4s-1.9-2.3-2.5-3.6c-.6-1.4-.9-2.8-.9-4.4v-37.8c0-5.2.7-10 2.1-14.3 1.4-4.3 3.4-7.9 6.1-10.9 2.7-3 5.9-5.4 9.8-7 3.8-1.6 8.2-2.4 13.1-2.4 9.8 0 17.5 3 22.9 9 5.6 6.2 8.5 15.1 8.5 26.6v36.8c0 1.5-.3 3-.9 4.4-.6 1.4-1.4 2.6-2.4 3.6s-2.3 1.9-3.7 2.4c-1.4.6-2.9.9-4.5.9s-3.1-.3-4.5-.9c-1.4-.6-2.6-1.4-3.6-2.4s-1.9-2.3-2.5-3.6c-.6-1.4-.9-2.8-.9-4.4v-37c0-4.4-.6-7.6-1.8-9.6-1.2-2-3.2-2.9-6.1-2.9-1.7 0-3.1.2-4.1.5-1 .4-1.9 1-2.6 1.9-.7 1-1.2 2.3-1.5 4-.3 1.7-.5 3.9-.5 6.7V298c0 1.5-.3 3-.9 4.4-.6 1.4-1.4 2.6-2.5 3.6-1 1-2.3 1.9-3.7 2.4-1.4.6-2.9.9-4.5.9-1.4.1-2.9-.2-4.3-.8zm88.6-1.5c-3.8-1.5-7.2-3.6-10.1-6.3-3-2.8-5.3-6.3-7-10.4-1.7-4.1-2.5-8.7-2.5-13.8v-18c0-5.1.9-9.7 2.6-13.8 1.7-4.1 4.1-7.6 7.2-10.5 3-2.8 6.4-4.9 10.2-6.3s7.9-2.2 12.2-2.2c6.4 0 11.9 1.4 16.4 4.2 3.3 2 6.5 5 9.6 9 1.5 2.3 2.3 4.7 2.3 7.3 0 1.5-.3 2.9-.8 4.2-.6 1.3-1.3 2.5-2.3 3.5-1.1 1-2.3 1.9-3.8 2.4-1.4.6-2.9.9-4.6.9-1.7 0-3.2-.3-4.5-1-1.3-.6-2.4-1.6-3.3-2.9-.8-1.1-1.2-1.8-1.4-2.2-.4-.7-.8-1.2-1.4-1.6-.5-.4-1.3-.7-2.2-1-1-.2-2.4-.3-4.1-.3-1.4 0-2.6.1-3.5.2-1 .1-1.9.5-2.7 1-2.3 1.5-3.4 4.5-3.4 8.8v18.4c0 4.4 1.1 7.3 3.3 8.8.8.5 1.7.9 2.6 1 .9.1 2 .2 3.4.2 3.2 0 5.6-.5 7.3-1.6.7-.5 1.3-1 1.9-1.7.5-.6 1.1-1.5 1.8-2.4v-.8h-.6c-1.5 0-2.9-.3-4.3-.9-1.3-.6-2.5-1.4-3.5-2.4s-1.8-2.2-2.4-3.6c-.6-1.4-.8-2.8-.8-4.3s.3-2.9.8-4.3c.6-1.3 1.3-2.5 2.4-3.5 1-1 2.2-1.9 3.5-2.4 1.3-.6 2.8-.9 4.3-.9l10.1.1c1.5 0 2.9.3 4.3.9 1.4.6 2.6 1.4 3.6 2.4s1.8 2.2 2.4 3.5c.6 1.3.8 2.7.8 4.2v10.9c0 1.7 0 3-.1 3.9-.1 1.6-.4 2.8-.7 3.6-2.7 7-6.9 12.4-12.5 16.3-5.3 3.6-11.4 5.5-18.3 5.5-4.3.1-8.4-.7-12.2-2.1zm55.9.5c-1.5-.6-2.9-1.6-4-2.7-1.2-1.2-2.1-2.5-2.7-4-.6-1.5-1-3.1-1-4.8 0-1.6.3-3.2 1-4.8.7-1.5 1.6-2.9 2.7-4 1.2-1.2 2.5-2.1 4-2.7 1.5-.6 3.1-1 4.8-1 1.6 0 3.2.3 4.7 1 1.5.6 2.8 1.6 4 2.7 1.1 1.1 2 2.5 2.7 4 .7 1.5 1 3.1 1 4.8 0 1.7-.3 3.3-1 4.8-.6 1.5-1.6 2.9-2.7 4-1.2 1.2-2.5 2.1-4 2.7-1.5.6-3.1 1-4.7 1-1.7 0-3.3-.4-4.8-1zm46-.5c-3.8-1.5-7.1-3.6-10-6.3-3-2.8-5.3-6.3-7-10.4-1.7-4.1-2.5-8.7-2.5-13.8v-18c0-5.1.8-9.7 2.5-13.8 1.7-4.1 4-7.6 7-10.5 2.9-2.8 6.2-4.9 10-6.3 3.8-1.4 7.8-2.2 12.1-2.2 6.4 0 11.9 1.4 16.4 4.2 3.3 2 6.5 5 9.6 9 1.6 2.3 2.4 4.8 2.4 7.4 0 1.5-.3 2.9-.9 4.2-.6 1.3-1.4 2.5-2.4 3.5s-2.3 1.8-3.7 2.4c-1.4.6-3 .9-4.5.9-1.6 0-3.1-.3-4.5-1-1.4-.6-2.4-1.6-3.2-2.9-.8-1.1-1.2-1.8-1.4-2.2-.4-.7-.8-1.2-1.4-1.6-.6-.4-1.3-.7-2.2-1-1-.2-2.4-.3-4.1-.3-1.4 0-2.5.1-3.4.2-.9.1-1.8.5-2.6 1-2.1 1.5-3.2 4.5-3.2 8.8v18.4c0 4.4 1.1 7.3 3.2 8.8.8.5 1.6.9 2.6 1 .9.1 2.1.2 3.4.2 1.7 0 3-.1 4-.3 1-.2 1.8-.5 2.3-1 .5-.4 1-.9 1.4-1.6.6-1.1 1.3-2.1 2-2.9.7-.9 1.6-1.6 2.7-2.1 1.3-.6 2.8-.9 4.3-.9 1.6 0 3.2.3 4.6.8s2.7 1.3 3.7 2.4c1 1 1.9 2.2 2.5 3.5s.9 2.7.9 4.2c0 2.7-.8 5.1-2.4 7.3-3.1 4-6.3 6.9-9.6 8.9-4.6 2.8-10 4.2-16.4 4.2-4.4 0-8.4-.8-12.2-2.2zm70-.1c-3.8-1.5-7.2-3.7-10.2-6.6-3.1-3-5.4-6.5-7.1-10.7-1.7-4.1-2.5-8.8-2.5-13.8v-16.7c0-5.1.8-9.7 2.5-13.9 1.7-4.2 4.1-7.7 7.1-10.7 2.9-2.8 6.3-5 10.2-6.5 3.8-1.5 7.9-2.3 12.1-2.3 4.2 0 8.2.8 12.1 2.3 3.9 1.5 7.2 3.7 10.1 6.5 3 3 5.4 6.6 7 10.7 1.7 4.2 2.5 8.8 2.5 13.9l-22.4-.2c0-4.3-1.1-7.3-3.3-9.1-1.5-1.1-3.5-1.7-6.1-1.7-2.6 0-4.7.6-6.1 1.7-2.2 1.8-3.3 4.8-3.3 9.1v17c0 4.3 1.1 7.2 3.3 9 1.5 1.2 3.5 1.8 6.1 1.8 2.6 0 4.6-.6 6.1-1.8 2.2-1.7 3.3-4.7 3.3-9V259h22.4v16.7c0 5.1-.8 9.7-2.5 13.8-1.7 4.1-4 7.7-7 10.7-2.9 2.9-6.3 5.1-10.1 6.6-3.9 1.5-7.9 2.3-12.1 2.3-4.3.1-8.3-.7-12.1-2.2zm59.6.8c-1.4-.6-2.6-1.4-3.6-2.4s-1.9-2.3-2.5-3.6c-.6-1.4-.9-2.8-.9-4.4v-43.6c0-3.8.7-7.3 2.1-10.7 1.4-3.4 3.4-6.3 6-8.9 2.5-2.5 5.5-4.5 8.9-6 3.4-1.4 7-2.2 10.8-2.2 6 0 11.5 1.9 16.5 5.6 2.3-1.8 4.9-3.2 7.6-4.1 2.8-1 5.6-1.4 8.6-1.4 3.8 0 7.4.7 10.8 2.2 3.4 1.4 6.4 3.4 9 6 2.5 2.5 4.5 5.5 6 8.9 1.4 3.4 2.2 7 2.2 10.7v43.6c0 1.5-.3 3-.9 4.4-.6 1.4-1.4 2.6-2.5 3.6-1 1-2.3 1.8-3.7 2.4-1.4.6-2.9.9-4.4.9-1.6 0-3.1-.3-4.5-.8-1.4-.6-2.6-1.4-3.7-2.4-1-1-1.9-2.3-2.5-3.6-.6-1.4-.9-2.8-.9-4.4v-42.7c-.1-1.3-.6-2.5-1.6-3.4-1-.9-2.2-1.4-3.5-1.4-1.3 0-2.4.4-3.3 1.3-.8.9-1.3 2-1.4 3.4v42.7c0 1.6-.3 3.1-.9 4.5-.6 1.4-1.4 2.6-2.4 3.7-1 1-2.3 1.9-3.6 2.4s-2.9.9-4.4.9c-1.6 0-3.1-.3-4.5-.9-1.4-.6-2.6-1.4-3.7-2.4-1-1-1.9-2.3-2.4-3.7-.6-1.4-.9-2.9-.9-4.5v-42.7c-.1-1.4-.6-2.5-1.5-3.3-.9-.8-2.1-1.3-3.4-1.3-1.3 0-2.5.5-3.4 1.4-1 1-1.5 2.1-1.5 3.4v42.7c0 1.5-.3 3-.9 4.4-.6 1.4-1.4 2.6-2.4 3.6s-2.3 1.8-3.7 2.4c-1.4.6-2.9.8-4.5.8-1.6-.3-3.1-.6-4.5-1.1zM646 357.9c.3.5.8.9 1.4 1.2l-1 3.1c-1.3-.2-2.4-.6-3.1-1.2-.8-.6-1.3-1.6-1.6-2.8-1.8 2.7-4.2 4.1-7.4 4.1-2.4 0-4.3-.7-5.7-2.2-1.4-1.5-2.1-3.5-2.1-6 0-2.9.9-5.1 2.8-6.6s4.6-2.3 8.1-2.3h3.5v-2.3c0-1.9-.4-3.3-1.2-4.1-.8-.8-2-1.3-3.8-1.3-1.9 0-4.1.5-6.6 1.4l-1.1-3.2c3-1.2 5.8-1.9 8.4-1.9 5.9 0 8.8 2.9 8.8 8.8v12.8c.2 1.2.3 2 .6 2.5zm-5-3.3v-6.4h-3c-4.5 0-6.7 1.9-6.7 5.6 0 1.6.4 2.8 1.1 3.7.7.9 1.8 1.3 3.1 1.3 2.4 0 4.2-1.4 5.5-4.2zm31.3-17c1.5 2.4 2.2 5.9 2.2 10.5 0 4.4-.8 7.9-2.5 10.5-1.7 2.6-4 3.9-7 3.9-2.7 0-4.8-1.1-6.5-3.2V372l-4.6.6v-38h4.1l.3 3.7c1.9-2.9 4.3-4.3 7.4-4.3 2.8-.1 5.1 1.1 6.6 3.6zm-2.6 10.5c0-3.7-.4-6.3-1.3-8-.9-1.7-2.2-2.5-4-2.5-1.2 0-2.3.4-3.2 1.1-.9.7-1.8 1.7-2.6 2.9v13.7c1.4 2.2 3.2 3.3 5.4 3.3 3.8 0 5.7-3.5 5.7-10.5zm30.5 1.6h-15.8c.1 3.2.8 5.4 1.9 6.8 1.1 1.4 2.7 2.1 4.6 2.1 1.2 0 2.3-.2 3.3-.6 1-.4 2-1 3.1-1.9l2.1 2.7c-2.5 2.3-5.4 3.4-8.7 3.4-3.5 0-6.3-1.2-8.2-3.7-1.9-2.5-2.9-5.9-2.9-10.3s.9-7.9 2.8-10.5c1.9-2.6 4.4-3.9 7.7-3.9s5.8 1.2 7.5 3.5c1.8 2.3 2.6 5.6 2.6 9.9.1.8.1 1.6 0 2.5zm-4.4-3.8c0-5.7-1.9-8.5-5.6-8.5-1.7 0-3.1.7-4.1 2.1-1 1.4-1.6 3.7-1.7 6.9h11.4v-.5zm25.4 15.8v-12h-9.8v12h-4.6v-27.1h4.6V346h9.8v-11.4h4.6v27.1h-4.6zM754 358v11.4h-3.4l-.7-7.8h-15.7l-.7 7.8h-3.4V358h1.6c.7-.6 1.3-1.2 1.7-1.9.4-.7.8-1.9 1.1-3.5.3-1.6.6-4 .8-7.1l.7-10.9h15.5V358h2.5zm-6.9-19.9h-6.9l-.4 7c-.2 2.9-.4 5.1-.8 6.8-.3 1.6-.8 2.9-1.3 3.8-.5.9-1.2 1.7-2.1 2.4h11.5v-20zm30.4 19.8c.3.5.8.9 1.4 1.2l-1 3.1c-1.3-.2-2.4-.6-3.1-1.2-.8-.6-1.3-1.6-1.6-2.8-1.8 2.7-4.2 4.1-7.4 4.1-2.4 0-4.3-.7-5.7-2.2-1.4-1.5-2.1-3.5-2.1-6 0-2.9.9-5.1 2.8-6.6s4.6-2.3 8.1-2.3h3.5v-2.3c0-1.9-.4-3.3-1.2-4.1-.8-.8-2-1.3-3.8-1.3-1.9 0-4.1.5-6.6 1.4l-1.1-3.2c3-1.2 5.8-1.9 8.4-1.9 5.9 0 8.8 2.9 8.8 8.8v12.8c.1 1.2.3 2 .6 2.5zm-5.1-3.3v-6.4h-3c-4.5 0-6.7 1.9-6.7 5.6 0 1.6.4 2.8 1.1 3.7.7.9 1.8 1.3 3.1 1.3 2.4 0 4.3-1.4 5.5-4.2zm39.5 7.1v-12h-9.8v12h-4.6v-27.1h4.6V346h9.8v-11.4h4.6v27.1h-4.6zm31.9-12H828c.1 3.2.8 5.4 1.9 6.8 1.1 1.4 2.7 2.1 4.6 2.1 1.2 0 2.3-.2 3.3-.6 1-.4 2-1 3.1-1.9l2.1 2.7c-2.5 2.3-5.4 3.4-8.7 3.4-3.5 0-6.3-1.2-8.2-3.7-1.9-2.5-2.9-5.9-2.9-10.3s.9-7.9 2.8-10.5c1.9-2.6 4.4-3.9 7.7-3.9s5.8 1.2 7.5 3.5c1.8 2.3 2.6 5.6 2.6 9.9.1.8.1 1.6 0 2.5zm-4.4-3.8c0-5.7-1.9-8.5-5.6-8.5-1.7 0-3.1.7-4.1 2.1-1 1.4-1.6 3.7-1.7 6.9h11.4v-.5zm30.3 12.1v11.4h-3.4l-.7-7.8h-15.7l-.7 7.8h-3.4V358h1.6c.7-.6 1.3-1.2 1.7-1.9.4-.7.8-1.9 1.1-3.5.3-1.6.6-4 .8-7.1l.7-10.9h15.5V358h2.5zm-7-19.9h-6.9l-.4 7c-.2 2.9-.4 5.1-.8 6.8-.3 1.6-.8 2.9-1.3 3.8-.5.9-1.2 1.7-2.1 2.4h11.5v-20zm32.3 15.4c0 2.7-.9 4.7-2.8 6.1-1.9 1.4-4.4 2-7.6 2h-8.8v-26.8c3.2-.6 6-.9 8.3-.9 3 0 5.4.7 7.1 2 1.7 1.3 2.5 3.1 2.5 5.4 0 3-1.7 4.9-5 5.7 4.2.4 6.3 2.6 6.3 6.5zm-14.6-15.9v8.1h4.4c3 0 4.4-1.4 4.4-4.2 0-1.4-.4-2.5-1.2-3.2-.8-.7-2.1-1-3.9-1-1.1 0-2.4.1-3.7.3zm9.9 15.8c0-1.7-.4-2.9-1.3-3.6-.9-.7-2.2-1.1-4-1.1h-4.6v9.5h4.2c3.8.1 5.7-1.5 5.7-4.8zm30.7 8.3h-4.4V348c0-3 .2-5.8.7-8.4l-10.6 22.1h-5v-27.1h4.4v13.3c0 2.8-.2 5.8-.6 8.7l10.5-22h5v27.1zm35.7-27.1l-6 12.6 6.8 14.5h-4.6l-5.8-12.5h-3.3v12.5h-4.2v-12.5h-3.2l-5.9 12.5h-4.6l6.8-14.5-6-12.6h4.4l5.3 11.2h3.3v-11.2h4.2v11.2h3.3l5.3-11.2h4.2zm24.9 27.1h-4.4V348c0-3 .2-5.8.7-8.4l-10.6 22.1h-5v-27.1h4.4v13.3c0 2.8-.2 5.8-.6 8.7l10.5-22h5v27.1zm32.8 0h-4.4l-.9-13.5c-.2-2.5-.3-4.6-.3-6.3l.1-2.8-5.6 19.6h-4.1l-5.4-19.6.1 3c0 2.2-.1 4.2-.2 6.1l-.8 13.5h-4.4l2.1-27.1h5.7l5 19.6 5.3-19.6h5.8l2 27.1zm24.4-24.1c1.9 2.4 2.9 5.9 2.9 10.5 0 4.4-1 7.9-2.9 10.4-2 2.6-4.7 3.8-8.1 3.8-3.5 0-6.2-1.3-8.1-3.8-1.9-2.5-2.9-6-2.9-10.5s1-8 2.9-10.5c2-2.5 4.7-3.7 8.1-3.7 3.5.1 6.1 1.3 8.1 3.8zm-12.7 2.6c-1.1 1.7-1.6 4.4-1.6 8 0 7 2.1 10.6 6.2 10.6s6.2-3.5 6.2-10.6c0-3.6-.5-6.2-1.5-7.9-1-1.7-2.6-2.5-4.6-2.5-2.1-.2-3.7.7-4.7 2.4zm35.6-5.6c1.2.5 2.4 1.2 3.5 2.2l-2.1 2.8c-.8-.7-1.6-1.1-2.5-1.5-.8-.3-1.7-.5-2.7-.5-2 0-3.6.9-4.7 2.6-1.1 1.7-1.7 4.4-1.7 8 0 6.8 2.1 10.2 6.4 10.2 1 0 1.8-.2 2.6-.5s1.6-.8 2.5-1.5l2.2 2.8c-2.2 2-4.7 3-7.5 3-3.5 0-6.2-1.2-8.2-3.6-2-2.4-3-5.9-3-10.4 0-3 .5-5.5 1.4-7.7.9-2.2 2.2-3.8 3.9-5 1.7-1.2 3.6-1.8 5.8-1.8 1.6.2 2.9.5 4.1.9zm25.4 0l-.6 3.7h-7.5v23.4h-4.6v-23.4h-7.9v-3.7h20.6zm23.5 27.1h-4.4V348c0-3 .2-5.8.7-8.4l-10.6 22.1h-5v-27.1h4.4v13.3c0 2.8-.2 5.8-.6 8.7l10.5-22h5v27.1zm40.3-3.7v11.4h-3.4l-.7-7.8H1131l-.7 7.8h-3.4V358h1.6c.7-.6 1.3-1.2 1.7-1.9.4-.7.8-1.9 1.1-3.5.3-1.6.6-4 .8-7.1l.7-10.9h15.5V358h2.6zm-7-19.9h-6.9l-.4 7c-.2 2.9-.4 5.1-.8 6.8-.3 1.6-.8 2.9-1.3 3.8-.5.9-1.2 1.7-2.1 2.4h11.5v-20zm31.6-3.5v27.1h-4.6v-23.4h-7.4l-.7 9.9c-.3 3.6-.6 6.2-1 7.9-.4 1.7-1 3-1.9 3.9-.9.9-2.2 1.6-4.1 2.3l-1.1-3.6c1-.4 1.7-.9 2.1-1.6.4-.6.8-1.6 1-2.9.2-1.3.4-3.5.6-6.4l.9-13.2h16.2zm25.5 0v27.1h-4.6v-10.6h-5.2l-5.1 10.6h-4.8l5.8-11.6c-3-1.3-4.5-3.7-4.5-7.2 0-2.7.9-4.7 2.7-6.2 1.8-1.4 4.3-2.1 7.6-2.1h8.1zm-4.6 13.2V338h-3.6c-1.8 0-3.2.4-4.1 1.2-.9.8-1.3 2-1.3 3.7 0 1.7.4 3 1.3 3.8.8.8 2.1 1.2 3.9 1.2h3.8zm42.6-10.2c1.9 2.4 2.9 5.9 2.9 10.5 0 4.4-1 7.9-2.9 10.4-2 2.6-4.7 3.8-8.1 3.8-3.5 0-6.2-1.3-8.1-3.8-1.9-2.5-2.9-6-2.9-10.5s1-8 2.9-10.5c2-2.5 4.7-3.7 8.1-3.7 3.5.1 6.2 1.3 8.1 3.8zm-12.7 2.6c-1.1 1.7-1.6 4.4-1.6 8 0 7 2.1 10.6 6.2 10.6s6.2-3.5 6.2-10.6c0-3.6-.5-6.2-1.5-7.9-1-1.7-2.6-2.5-4.6-2.5-2.1-.2-3.7.7-4.7 2.4zm37.8-5.6l-.6 3.7h-7.5v23.4h-4.6v-23.4h-7.9v-3.7h20.6zm21.7 23.4v11.4h-3.4l-.7-7.8H1266l-.7 7.8h-3.4V358h1.6c.7-.6 1.3-1.2 1.7-1.9.4-.7.8-1.9 1.1-3.5.3-1.6.6-4 .8-7.1l.7-10.9h15.5V358h2.5zm-7-19.9h-6.9l-.4 7c-.2 2.9-.4 5.1-.8 6.8-.3 1.6-.8 2.9-1.3 3.8-.5.9-1.2 1.7-2.1 2.4h11.5v-20zm30.9 14.4c0 3.1-.9 5.4-2.7 6.9-1.8 1.5-4.2 2.3-7.3 2.3h-7.8v-27.1h4.6v8.9h2.6c7.1-.1 10.6 2.9 10.6 9zm-6.1 4.4c.9-.9 1.4-2.4 1.4-4.5 0-1.9-.4-3.3-1.3-4.2-.9-.9-2.4-1.4-4.5-1.4h-2.7v11.4h2.9c1.9 0 3.2-.4 4.2-1.3zm9.6-22.3h4.6v27.1h-4.6v-27.1zm22.8 12.6l8.3 14.5h-5.1l-6.1-11.7-6 11.7h-4.9l8.3-14.3-7.4-12.8h5l5.1 10.1 5.1-10.1h4.9l-7.2 12.6zm29.3 10.7c.3.5.8.9 1.4 1.2l-1 3.1c-1.3-.2-2.4-.6-3.1-1.2-.8-.6-1.3-1.6-1.6-2.8-1.8 2.7-4.2 4.1-7.4 4.1-2.4 0-4.3-.7-5.7-2.2-1.4-1.5-2.1-3.5-2.1-6 0-2.9.9-5.1 2.8-6.6s4.6-2.3 8.1-2.3h3.5v-2.3c0-1.9-.4-3.3-1.2-4.1-.8-.8-2-1.3-3.8-1.3-1.9 0-4.1.5-6.6 1.4l-1.1-3.2c3-1.2 5.8-1.9 8.4-1.9 5.9 0 8.8 2.9 8.8 8.8v12.8c.1 1.2.3 2 .6 2.5zm-5.1-3.3v-6.4h-3c-4.5 0-6.7 1.9-6.7 5.6 0 1.6.4 2.8 1.1 3.7.7.9 1.8 1.3 3.1 1.3 2.4 0 4.3-1.4 5.5-4.2z"/><path class="st1" d="M597.6 260.9l-88-63.3c-5.1-3.7-12.1-3.7-17.2 0l-31.7 22.8v-9.2c0-1.9-1.5-3.4-3.4-3.4h-20.6c-1.9 0-3.4 1.5-3.4 3.4V240l-29 20.9c-4.2 3-2.1 9.7 3.1 9.7 1.9 0 3.4 1.5 3.4 3.4v102c0 7.8 6.3 14.1 14.1 14.1H577c7.8 0 14.1-6.3 14.1-14.1V274c0-1.9 1.5-3.4 3.4-3.4 5.2-.1 7.3-6.7 3.1-9.7zm-90.1 89.7l-4.1 4c-1.5 1.5-3.8 1.5-5.3 0l-4.1-4c-24.9-22-41.2-36.9-41.2-55.1 0-14.8 11.5-26.3 26.3-26.3 7.2 0 14.3 3 19.5 7.9 1.1 1.1 3 1.1 4.1 0 5.2-4.9 12.3-7.9 19.5-7.9 14.8 0 26.3 11.5 26.3 26.3.1 18.2-16.1 33.1-41 55.1z"/></svg>